<svg width="77" height="61" viewBox="0 0 77 61" fill="none" xmlns="http://www.w3.org/2000/svg">
<g id="bus-2">
<path id="secondary" d="M73.8033 26.6011H3V46.2687C3 47.3119 3.41442 48.3124 4.1521 49.0501C4.88978 49.7878 5.89028 50.2022 6.93352 50.2022H10.867C10.867 48.1157 11.6959 46.1147 13.1712 44.6394C14.6466 43.164 16.6476 42.3351 18.7341 42.3351C20.8205 42.3351 22.8216 43.164 24.2969 44.6394C25.7723 46.1147 26.6011 48.1157 26.6011 50.2022H50.2022C50.2022 48.1157 51.0311 46.1147 52.5064 44.6394C53.9818 43.164 55.9828 42.3351 58.0693 42.3351C60.1557 42.3351 62.1567 43.164 63.6321 44.6394C65.1074 46.1147 65.9363 48.1157 65.9363 50.2022H69.8698C70.913 50.2022 71.9136 49.7878 72.6512 49.0501C73.3889 48.3124 73.8033 47.3119 73.8033 46.2687V26.6011Z" fill="url(#paint0_linear_26_36)"/>
<path id="primary" d="M10.5917 50.2022H6.93352C5.89028 50.2022 4.88978 49.7878 4.1521 49.0501C3.41442 48.3125 3 47.3119 3 46.2687V6.93353C3 5.8903 3.41442 4.88979 4.1521 4.15211C4.88978 3.41444 5.89028 3.00001 6.93352 3.00001H63.1042C63.9288 2.99788 64.7332 3.25498 65.4038 3.73496C66.0744 4.21494 66.5771 4.89353 66.841 5.6748L73.8033 26.0111C73.9291 26.4055 73.9953 26.8165 74 27.2305V46.2687C74 47.3119 73.5856 48.3125 72.8479 49.0501C72.1102 49.7878 71.1097 50.2022 70.0665 50.2022H66.5263" stroke="#142C35" stroke-width="5.46154" stroke-linecap="round" stroke-linejoin="round"/>
<path id="primary_2" d="M49.9662 50.2023H27.0731M73.4886 26.6012H3M50.2022 3.00012V26.6012M18.7341 42.3353C17.1781 42.3353 15.6571 42.7967 14.3634 43.6611C13.0697 44.5256 12.0613 45.7542 11.4659 47.1918C10.8704 48.6293 10.7146 50.2111 11.0182 51.7371C11.3217 53.2632 12.071 54.6649 13.1712 55.7652C14.2715 56.8654 15.6732 57.6147 17.1993 57.9182C18.7253 58.2218 20.3071 58.066 21.7447 57.4705C23.1822 56.8751 24.4108 55.8668 25.2753 54.573C26.1397 53.2793 26.6011 51.7583 26.6011 50.2023C26.6011 48.1159 25.7723 46.1149 24.2969 44.6395C22.8216 43.1642 20.8205 42.3353 18.7341 42.3353ZM58.0693 42.3353C56.5133 42.3353 54.9923 42.7967 53.6986 43.6611C52.4048 44.5256 51.3965 45.7542 50.8011 47.1918C50.2056 48.6293 50.0498 50.2111 50.3534 51.7371C50.6569 53.2632 51.4062 54.6649 52.5064 55.7652C53.6066 56.8654 55.0084 57.6147 56.5345 57.9182C58.0605 58.2218 59.6423 58.066 61.0798 57.4705C62.5174 56.8751 63.746 55.8668 64.6105 54.573C65.4749 53.2793 65.9363 51.7583 65.9363 50.2023C65.9363 48.1159 65.1074 46.1149 63.6321 44.6395C62.1567 43.1642 60.1557 42.3353 58.0693 42.3353Z" stroke="#142C35" stroke-width="5.46154" stroke-linecap="round" stroke-linejoin="round"/>
</g>
<defs>
<linearGradient id="paint0_linear_26_36" x1="3.01004" y1="38.404" x2="73.7967" y2="38.404" gradientUnits="userSpaceOnUse">
<stop stop-color="#142C35"/>
<stop offset="1" stop-color="#C2E890"/>
</linearGradient>
</defs>
</svg>
