<svg width="564" height="551" viewBox="0 0 464 451" fill="none" xmlns="http://www.w3.org/2000/svg">
<path d="M17.9391 89.86C19.8991 84.85 24.0391 74.52 29.2191 73.05C34.3991 71.59 40.2391 72.69 44.5291 75.94C41.9691 71.84 41.3891 66.46 43.4091 62.08C45.4291 57.69 50.1491 54.57 54.9791 54.84C59.7991 55.11 64.2891 59.01 64.8591 63.81C64.6591 59.47 64.9891 54.98 66.9091 51.09C68.8291 47.19 72.5991 43.99 76.9291 43.74C80.9391 43.51 84.7991 45.83 87.2391 49.03C89.6691 52.23 90.8591 56.21 92.2391 61.26C94.3791 57.5 99.2491 55.55 103.389 56.78C107.529 58.01 110.539 62.31 110.289 66.62C116.739 63.85 124.739 65.14 129.989 69.8C135.239 74.46 137.489 82.24 135.459 89.85C133.239 89.29 19.9291 90.08 17.9391 89.85V89.86Z" fill="#F6E0C5"/>
<path d="M53.6091 58.87C50.9791 59.41 48.5991 61.06 47.1691 63.32C45.7291 65.58 45.2591 68.44 45.8891 71.05" stroke="#F1F1F4" stroke-width="2" stroke-linecap="round" stroke-linejoin="round"/>
<path d="M57.1891 59.76C58.3791 59.64 59.6091 60.09 60.4391 60.95" stroke="#F1F1F4" stroke-width="2" stroke-linecap="round" stroke-linejoin="round"/>
<path d="M32.9491 76.2C29.9691 76.68 27.2291 78.47 25.1791 81.44C24.4791 82.72 24.0191 84.14 23.8291 85.58" stroke="#F1F1F4" stroke-width="2" stroke-linecap="round" stroke-linejoin="round"/>
<path d="M60.0991 83.43C58.7591 81.73 58.4491 79.2501 59.4091 77.3001C60.3691 75.3501 62.5591 74.0601 64.7191 74.2401C66.8791 74.4101 68.8591 76.0701 69.3491 78.1901C69.6191 76.6901 69.8991 75.1801 70.4991 73.7801C71.0991 72.3801 72.0691 71.0901 73.4091 70.3801C75.6691 69.2001 78.6591 69.99 80.3091 71.93C81.9591 73.87 82.3191 76.71 81.5591 79.14" stroke="#F1F1F4" stroke-width="2" stroke-linecap="round" stroke-linejoin="round"/>
<path d="M110.649 69.66C113.789 68.05 117.539 67.65 120.949 68.55C124.369 69.45 127.419 71.64 129.369 74.59" stroke="#F1F1F4" stroke-width="2" stroke-linecap="round" stroke-linejoin="round"/>
<path d="M178.379 61.29C175.419 106.83 172.729 147.3 173.589 189.47C177.829 192.32 183.569 192.76 186.979 190.42C184.469 147.43 183.289 105.46 183.289 61.29C181.709 61.56 180.229 61.35 178.369 61.29H178.379Z" fill="#BA9487"/>
<path d="M176.939 83.73C175.569 122.59 173.899 157.26 172.769 189.29C176.589 191.39 181.179 192.07 185.439 191.15" stroke="#88625D" stroke-width="2" stroke-linecap="round" stroke-linejoin="round"/>
<path d="M172.769 149.74C176.729 151.91 181.449 151.96 185.439 149.87C185.369 149.66 185.309 149.45 185.239 149.24" stroke="#88625D" stroke-width="2" stroke-linecap="round" stroke-linejoin="round"/>
<path d="M174.239 134.42C177.579 136.22 181.579 136.15 184.869 134.25" stroke="#88625D" stroke-width="2" stroke-linecap="round" stroke-linejoin="round"/>
<path d="M174.509 118.37C177.619 120.54 181.659 120.64 184.839 118.64" stroke="#88625D" stroke-width="2" stroke-linecap="round" stroke-linejoin="round"/>
<path d="M181.179 60.24C181.719 51.72 182.419 42.72 187.319 35.74C189.509 32.61 192.429 30.07 195.349 27.61C206.499 18.2 218.129 9.35 230.979 1C222.149 16.8 213.129 32.84 200.109 45.41C194.339 50.98 187.869 55.77 181.169 60.25L181.179 60.24Z" fill="#A29CBB"/>
<path d="M181.369 60.8C188.459 65.54 195.889 70.67 199.479 78.41C201.089 81.88 201.809 85.68 202.479 89.44C205.019 103.81 206.839 118.31 207.609 133.62C198.379 118.05 189.029 102.2 184.699 84.62C182.779 76.83 181.889 68.84 181.369 60.79V60.8Z" fill="#A29CBB"/>
<path d="M179.109 60C171.469 64.18 163.379 68.48 154.669 68.35C149.379 68.27 144.269 66.54 139.309 64.7C117.629 56.64 99.7691 46.81 99.7691 46.81C114.239 45.3 128.849 46.4 143.359 47.5C147.869 47.84 152.409 48.19 156.769 49.41C164.939 51.69 172.019 56.91 180.109 59.45" fill="#A29CBB"/>
<path d="M179.339 60.22C171.529 64.07 163.289 67.85 154.579 67.75C148.539 67.68 142.689 65.74 137.009 63.66C124.429 59.05 112.129 53.66 100.209 47.54" stroke="#5F5680" stroke-width="2" stroke-linecap="round" stroke-linejoin="round"/>
<path d="M167.009 58.04C163.659 56.16 160.299 54.27 156.819 52.35L146.939 51.51" stroke="#F6E0C5" stroke-width="2" stroke-linecap="round" stroke-linejoin="round"/>
<path d="M142.509 51.66C140.779 51.44 139.039 51.22 137.309 51" stroke="#F6E0C5" stroke-width="2" stroke-linecap="round" stroke-linejoin="round"/>
<path d="M230.689 1.20996C223.109 13.18 215.529 25.15 208.309 37.18C201.019 44.36 193.409 51.21 185.499 57.7" stroke="#5F5680" stroke-width="2" stroke-linecap="round" stroke-linejoin="round"/>
<path d="M185.889 49.06C186.609 46.18 187.339 43.28 188.509 40.55C189.689 37.82 191.349 35.25 193.669 33.39" stroke="#F6E0C5" stroke-width="2" stroke-linecap="round" stroke-linejoin="round"/>
<path d="M196.679 30.89C197.929 29.93 199.179 28.98 200.429 28.02" stroke="#F6E0C5" stroke-width="2" stroke-linecap="round" stroke-linejoin="round"/>
<path d="M182.979 73.88C183.529 80.61 184.639 87.29 186.249 93.54C192.759 106.49 199.609 119.26 206.789 131.85" stroke="#5F5680" stroke-width="2" stroke-linecap="round" stroke-linejoin="round"/>
<path d="M188.639 70.43C193.249 73.94 196.609 79.04 198.019 84.66" stroke="#F6E0C5" stroke-width="2" stroke-linecap="round" stroke-linejoin="round"/>
<path d="M198.979 88.15C199.459 90.94 199.939 93.72 200.419 96.5" stroke="#F6E0C5" stroke-width="2" stroke-linecap="round" stroke-linejoin="round"/>
<path d="M175.539 58.91C174.619 60.66 174.589 62.87 175.579 64.58C176.569 66.29 178.539 67.4 180.519 67.3C182.029 67.22 183.449 66.47 184.559 65.45C185.919 64.2 186.879 62.46 186.979 60.62C187.089 58.78 186.369 56.67 184.729 55.83C182.669 54.78 177.629 54.91 175.539 58.92V58.91Z" fill="#5F5680"/>
<path d="M273.739 174.42C273.649 175.19 273.549 175.97 273.649 176.74C273.739 177.51 274.039 178.28 274.629 178.8C275.239 179.34 276.079 179.53 276.879 179.71C277.479 179.84 278.079 179.97 278.679 180.1C278.889 180.15 279.109 180.19 279.309 180.1C279.589 179.98 279.709 179.64 279.789 179.34C280.149 178 280.509 176.66 280.599 175.23C278.249 174.95 275.899 174.66 273.549 174.38C273.599 174.44 273.639 174.51 273.759 174.43L273.739 174.42Z" fill="#37304F"/>
<path d="M271.779 122.54C270.159 128.18 269.249 134.02 269.079 139.89C271.279 139.41 273.619 139.59 275.879 140.85C276.379 134.41 277.479 128.02 279.159 121.79C277.149 121.82 275.139 121.86 271.779 122.54Z" fill="#EAA94E"/>
<path d="M287.599 124.88C285.979 130.52 285.069 136.36 284.899 142.23C287.099 141.75 289.439 141.93 291.699 143.19C292.199 136.75 293.299 130.36 294.979 124.13C292.969 124.16 290.959 124.2 287.599 124.88Z" fill="#EAA94E"/>
<path d="M273.659 161.4C273.659 161.4 271.799 160.91 270.979 161.33C270.159 161.76 269.609 162.73 269.799 163.64C269.989 164.55 271.009 165.23 271.899 164.95C270.849 164.59 269.559 165.33 269.339 166.42C269.119 167.51 270.019 168.69 271.129 168.77C269.989 168.57 268.849 169.47 268.549 170.59C268.249 171.71 268.679 172.93 269.439 173.8C270.199 174.67 271.249 175.23 272.319 175.66C275.339 176.86 278.699 177.08 281.919 176.66C282.909 176.53 284.059 176.2 284.359 175.25C284.569 174.59 284.239 173.85 283.719 173.38C283.209 172.91 282.539 172.65 281.889 172.41C282.839 172.46 283.839 172.51 284.689 172.09C285.539 171.67 286.169 170.62 285.779 169.75C285.459 169.02 284.579 168.71 283.789 168.66C284.679 168.51 285.569 168.22 286.269 167.66C286.969 167.09 287.449 166.2 287.349 165.31C287.249 164.34 286.489 163.54 285.619 163.11C284.749 162.68 283.759 162.55 282.789 162.43C279.749 162.05 273.649 161.41 273.649 161.41L273.659 161.4Z" fill="#37304F"/>
<path d="M299.749 141.38C298.249 147.04 296.749 152.69 295.249 158.35C294.649 160.6 293.879 163.09 291.849 164.23C290.319 165.09 288.459 164.96 286.709 164.81C280.659 164.28 274.589 163.74 268.629 162.52C267.709 162.33 266.749 162.11 266.029 161.51C265.159 160.79 264.779 159.66 264.469 158.58C262.529 151.89 261.739 144.87 262.139 137.92C262.589 138.49 263.389 138.63 264.109 138.72C275.669 140.17 287.289 141.25 299.749 141.39V141.38Z" fill="#5F5680"/>
<path d="M300.319 138.62C288.239 135.84 275.769 134.73 263.379 135.34C262.809 135.37 262.209 135.4 261.699 135.66C260.659 136.17 260.189 137.4 260.069 138.55C259.949 139.59 260.069 140.74 260.779 141.51C261.539 142.33 262.749 142.5 263.859 142.62C274.999 143.81 286.129 145 297.269 146.19C298.059 146.27 298.899 146.35 299.589 145.95C300.399 145.48 300.739 144.51 300.979 143.61C301.399 142.07 301.619 140.14 300.329 138.63L300.319 138.62Z" fill="#A29CBB"/>
<path d="M262.099 145.69C263.659 150.07 262.569 155.25 264.909 159.27C265.419 160.14 266.079 160.93 266.889 161.53C268.659 162.84 270.969 163.17 273.169 163.22C275.369 163.27 277.599 163.1 279.749 163.59" stroke="#37304F" stroke-width="2" stroke-linecap="round" stroke-linejoin="round"/>
<path d="M292.579 150.12C292.059 152.55 291.529 154.98 291.009 157.41" stroke="#A29CBB" stroke-width="2" stroke-linecap="round" stroke-linejoin="round"/>
<path d="M270.429 164.97C274.249 165.67 278.069 166.37 281.879 167.07" stroke="#A29CBB" stroke-width="2" stroke-linecap="round" stroke-linejoin="round"/>
<path d="M283.129 172.43C280.679 171.7 278.139 171.24 275.579 171.07" stroke="#A29CBB" stroke-width="2" stroke-linecap="round" stroke-linejoin="round"/>
<path d="M292.549 108.93C284.759 110.94 275.849 113.5 267.519 116.35C264.839 117.08 262.619 119.33 261.929 122.03C261.239 124.73 262.109 127.78 264.109 129.71C266.109 131.64 268.959 131.81 272.519 130.81C280.449 128.6 288.369 126.39 296.299 124.17C299.169 123.03 302.249 121.53 303.929 118.91L304.059 118.87C305.749 116.24 305.689 112.42 303.459 110.22C302.109 108.89 300.169 108.29 298.279 108.21L298.159 108.25C296.269 108.16 294.399 108.54 292.549 108.93Z" fill="#EFC380"/>
<path d="M285.729 114.28C282.229 115.57 278.729 116.86 275.229 118.15" stroke="#F6E0C5" stroke-width="2" stroke-linecap="round" stroke-linejoin="round"/>
<path d="M271.879 119.98C270.599 120.13 269.399 120.84 268.649 121.89C267.909 122.94 267.629 124.31 267.919 125.57" stroke="#F6E0C5" stroke-width="2" stroke-linecap="round" stroke-linejoin="round"/>
<path d="M304.399 112.54C305.519 113.78 305.729 115.67 305.169 117.24C304.609 118.81 303.389 120.08 301.989 120.99C300.589 121.9 299.009 122.47 297.429 123.02C289.979 125.59 282.339 127.58 274.709 129.53" stroke="#EAA94E" stroke-width="2" stroke-linecap="round" stroke-linejoin="round"/>
<path d="M293.399 92.9C285.609 94.91 276.699 97.47 268.369 100.32C265.689 101.05 263.469 103.3 262.779 106C262.089 108.7 262.959 111.75 264.959 113.68C266.969 115.62 269.809 115.78 273.369 114.78C281.299 112.57 289.219 110.36 297.149 108.14C300.019 107 303.099 105.5 304.779 102.88L304.909 102.84C306.599 100.21 306.539 96.38 304.309 94.19C302.959 92.86 301.019 92.26 299.129 92.18L299.009 92.22C297.119 92.13 295.249 92.51 293.399 92.9Z" fill="#EFC380"/>
<path d="M286.579 98.25C283.079 99.54 279.579 100.83 276.079 102.12" stroke="#F6E0C5" stroke-width="2" stroke-linecap="round" stroke-linejoin="round"/>
<path d="M272.729 103.95C271.449 104.1 270.249 104.81 269.499 105.86C268.759 106.91 268.479 108.28 268.769 109.54" stroke="#F6E0C5" stroke-width="2" stroke-linecap="round" stroke-linejoin="round"/>
<path d="M305.249 96.51C306.369 97.75 306.579 99.64 306.019 101.21C305.459 102.78 304.239 104.05 302.839 104.96C301.439 105.87 299.859 106.44 298.279 106.99C290.829 109.56 283.189 111.55 275.559 113.5" stroke="#EAA94E" stroke-width="2" stroke-linecap="round" stroke-linejoin="round"/>
<path d="M295.359 77.28C287.569 79.29 278.659 81.85 270.329 84.7C267.649 85.43 265.429 87.68 264.739 90.38C264.049 93.08 264.919 96.13 266.919 98.06C268.929 100 271.769 100.16 275.329 99.16C283.259 96.95 291.179 94.74 299.109 92.52C301.979 91.38 305.059 89.88 306.739 87.26L306.869 87.22C308.559 84.59 308.499 80.77 306.269 78.57C304.919 77.24 302.979 76.64 301.089 76.56L300.969 76.6C299.079 76.51 297.209 76.89 295.359 77.28Z" fill="#EFC380"/>
<path d="M288.539 82.63C285.039 83.92 281.539 85.21 278.039 86.5" stroke="#F6E0C5" stroke-width="2" stroke-linecap="round" stroke-linejoin="round"/>
<path d="M274.689 88.33C273.409 88.48 272.209 89.19 271.459 90.24C270.719 91.29 270.439 92.66 270.729 93.92" stroke="#F6E0C5" stroke-width="2" stroke-linecap="round" stroke-linejoin="round"/>
<path d="M307.209 80.89C308.329 82.13 308.539 84.02 307.979 85.59C307.419 87.16 306.199 88.43 304.799 89.34C303.399 90.25 301.819 90.82 300.239 91.37C292.789 93.94 285.149 95.93 277.519 97.88" stroke="#EAA94E" stroke-width="2" stroke-linecap="round" stroke-linejoin="round"/>
<path d="M296.209 61.25C288.419 63.26 279.509 65.82 271.179 68.67C268.499 69.4 266.279 71.65 265.589 74.35C264.899 77.05 265.769 80.1 267.769 82.03C269.779 83.97 272.619 84.13 276.179 83.13C284.109 80.92 292.029 78.71 299.959 76.49C302.829 75.35 305.909 73.85 307.589 71.23L307.719 71.19C309.409 68.56 309.349 64.73 307.119 62.54C305.769 61.21 303.829 60.61 301.939 60.53L301.819 60.57C299.929 60.48 298.059 60.86 296.209 61.25Z" fill="#EFC380"/>
<path d="M289.399 66.6C285.899 67.89 282.399 69.18 278.899 70.47" stroke="#F6E0C5" stroke-width="2" stroke-linecap="round" stroke-linejoin="round"/>
<path d="M275.539 72.3C274.259 72.45 273.059 73.1601 272.309 74.2101C271.559 75.2601 271.289 76.63 271.579 77.89" stroke="#F6E0C5" stroke-width="2" stroke-linecap="round" stroke-linejoin="round"/>
<path d="M308.059 64.86C309.179 66.1 309.389 67.9901 308.829 69.5601C308.269 71.1301 307.049 72.4001 305.649 73.3101C304.249 74.2201 302.669 74.79 301.089 75.34C293.639 77.91 285.999 79.9001 278.369 81.8501" stroke="#EAA94E" stroke-width="2" stroke-linecap="round" stroke-linejoin="round"/>
<path d="M280.689 53.09C277.639 55.03 276.809 57.77 277.189 61.36C277.339 62.76 277.829 64.2 278.929 65.07C280.609 66.42 283.049 66.03 285.139 65.5C290.159 64.22 295.039 62.5 299.919 60.77C301.189 60.32 302.539 59.82 303.359 58.73C304.339 57.43 304.269 55.63 303.939 54.03C303.599 52.38 302.949 50.7 301.619 49.66C299.909 48.33 297.529 48.38 295.379 48.64C290.849 49.18 282.429 51.97 280.689 53.07V53.09Z" fill="#EFC380"/>
<path d="M292.679 52.17C289.739 52.4 286.689 52.66 284.159 54.18C283.439 54.61 282.769 55.15 282.309 55.85C281.849 56.55 281.629 57.44 281.839 58.25" stroke="#F6E0C5" stroke-width="2" stroke-linecap="round" stroke-linejoin="round"/>
<path d="M125.829 252.03C124.339 249.56 126.599 241.91 127.399 239.14C128.199 236.37 129.269 233.53 128.789 230.69C128.029 226.18 123.539 222.9 123.029 218.35C122.439 213.1 127.369 208.02 125.719 203C124.589 199.59 120.759 197.66 119.499 194.29C118.589 191.86 119.189 189.13 120.179 186.73C121.169 184.33 122.539 182.09 123.239 179.59C124.849 173.84 122.309 167.18 117.279 163.96C108.869 163.02 100.279 162.79 91.6891 162.83C90.0691 164.95 90.6591 169.38 91.9091 173.1C93.1591 176.82 94.9691 180.52 94.7391 184.44C94.5291 187.96 92.6891 191.14 91.1491 194.32C89.6091 197.5 88.3191 201.1 89.2791 204.5C90.1291 207.51 92.6291 209.84 93.5291 212.84C95.4891 219.38 89.2891 226.3 91.1891 232.86C92.0491 235.82 94.3991 238.06 96.1591 240.58C97.9291 243.1 99.1291 248.52 96.8291 252.01C100.339 251.72 123.019 252.77 125.849 252.01L125.829 252.03Z" fill="#B8DCDF"/>
<path d="M102.029 169.17C104.279 171.53 106.669 174.28 106.509 177.54C106.309 181.69 102.069 184.59 101.159 188.64C100.489 191.62 101.729 194.68 103.159 197.37C104.589 200.07 106.259 202.77 106.549 205.81C107.189 212.52 100.929 218.7 102.309 225.29C102.899 228.11 104.809 230.44 106.109 233.01C107.409 235.58 108.009 238.96 106.149 241.15" stroke="#F1F1F4" stroke-width="2" stroke-linecap="round" stroke-linejoin="round"/>
<path d="M112.639 184.6C110.539 186.91 110.209 190.4 110.879 193.45C111.549 196.5 113.079 199.29 114.319 202.16C115.559 205.03 116.549 208.16 116.039 211.25C115.319 215.62 111.699 219.46 112.299 223.85C112.699 226.74 114.859 229.03 116.209 231.62C118.299 235.63 118.389 240.62 116.429 244.7" stroke="#F1F1F4" stroke-width="2" stroke-linecap="round" stroke-linejoin="round"/>
<path d="M93.5191 177.62C94.4691 179.04 95.9791 182.39 93.8991 188.3C92.4891 192.29 89.0491 197.79 89.4791 201.69C89.9291 205.8 94.3891 209.11 95.4691 213.16C97.0091 218.97 91.3191 224.7 92.1291 230.58C92.6091 234.03 95.2591 237.07 96.8491 240.32C98.4391 243.57 98.3191 250.86 96.8091 252.02" stroke="#5683A0" stroke-width="2" stroke-linecap="round" stroke-linejoin="round"/>
<path d="M120.209 162.58C120.089 161.29 119.969 159.98 120.229 158.7C120.479 157.43 121.169 156.18 122.299 155.55C123.249 155.02 124.389 154.98 125.479 154.96C139.939 154.64 156.289 155.75 170.739 155.43C170.739 153.38 171.729 132.09 171.369 129.59C154.189 128.55 137.089 127.66 120.119 129.29C114.379 129.84 108.419 130.77 103.749 134.15C99.7291 137.05 97.0591 141.54 95.6191 146.28C94.1691 151.02 93.8591 156.03 93.8491 161.3C91.9791 161.14 89.9491 161.48 88.5791 162.76C87.1991 164.04 86.7691 166.41 88.0291 167.81C89.0691 168.97 90.7891 169.12 92.3391 169.2C100.819 169.63 109.299 170.05 117.769 170.48C119.099 170.55 120.449 170.61 121.739 170.26C123.019 169.91 124.239 169.06 124.689 167.8C125.099 166.65 124.749 165.26 123.839 164.44C122.929 163.62 121.509 163.41 120.219 162.58H120.209Z" fill="#5F5680"/>
<path d="M125.569 118.39C125.029 124.45 125.029 130.5 125.549 136.49C125.639 137.51 125.809 138.63 126.839 139.27C127.819 139.88 129.289 139.89 130.649 139.87C132.119 139.85 133.799 139.76 134.829 138.93C135.989 138 136.489 126.79 136.779 118.84C136.809 118.04 136.719 117.12 135.819 116.71C135.299 116.47 134.619 116.47 133.969 116.49C131.529 116.56 129.069 116.85 125.569 118.39Z" fill="#37304F"/>
<path d="M138.019 119.23C139.749 118.23 141.709 117.73 143.639 117.21C145.569 116.69 147.519 116.12 149.169 115C150.819 113.88 152.149 112.11 152.249 110.11C152.349 108.07 151.079 106.08 149.289 105.1C147.989 104.39 146.259 104.21 145.089 105.12C143.929 106.02 143.689 107.63 143.029 108.94C142.269 110.46 140.909 111.61 139.419 112.42C137.929 113.23 136.289 113.72 134.589 114.2C133.659 113.27 132.709 112.34 132.029 111.21C131.349 110.08 130.939 108.74 131.189 107.45C131.379 106.44 131.959 105.51 131.979 104.48C132.019 102.78 130.519 101.41 128.939 100.79C127.259 100.13 125.309 100.06 123.679 100.81C122.049 101.56 120.779 103.2 120.699 105C120.609 106.77 121.599 108.41 122.659 109.83C124.069 111.71 125.699 113.43 127.899 115.49C125.009 116.07 122.119 116.64 119.219 117.22C118.539 117.35 117.839 117.49 117.179 117.28C116.209 116.98 115.609 116.04 114.809 115.43C113.409 114.37 111.369 114.38 109.839 115.25C108.309 116.12 107.299 117.74 106.919 119.45C106.419 121.67 107.099 124.32 109.079 125.44C110.269 126.12 111.709 126.15 113.079 126.05C119.579 125.58 125.599 122.62 131.609 119.96C133.439 122.77 135.299 125.6 137.709 127.93C140.119 130.26 143.169 132.08 146.509 132.4C148.259 132.57 150.079 132.31 151.639 131.48C153.189 130.65 154.459 129.23 154.929 127.53C155.399 125.83 154.989 123.88 153.759 122.62C152.959 121.8 151.709 121.29 150.629 121.69C149.799 122 149.229 122.75 148.459 123.2C146.849 124.13 144.789 123.47 143.219 122.5C141.639 121.53 140.199 120.23 138.039 119.22L138.019 119.23Z" fill="#CF673B"/>
<path d="M132.939 115.73C132.549 115.72 132.159 115.92 131.939 116.25C131.719 116.58 131.689 117.02 131.859 117.37C132.039 117.76 132.429 118.02 132.829 118.19C133.509 118.48 134.419 118.52 134.899 117.95C135.329 117.43 135.179 116.58 134.679 116.12C134.179 115.66 133.449 115.53 132.949 115.73H132.939Z" fill="#D78A4B"/>
<path d="M125.679 101.65C124.099 102.32 123.009 104.01 123.039 105.73C123.069 107.45 124.219 109.09 125.829 109.71" stroke="#D78A4B" stroke-width="2" stroke-linecap="round" stroke-linejoin="round"/>
<path d="M110.229 118.13C109.589 119.14 109.569 120.52 110.179 121.55C110.789 122.58 112.009 123.23 113.209 123.15" stroke="#D78A4B" stroke-width="2" stroke-linecap="round" stroke-linejoin="round"/>
<path d="M146.949 107.13C145.639 107.56 145.029 109.02 144.339 110.22C143.029 112.49 140.889 114.27 138.419 115.15" stroke="#D78A4B" stroke-width="2" stroke-linecap="round" stroke-linejoin="round"/>
<path d="M140.399 123.36C141.349 124.59 142.709 125.5 144.209 125.91C145.709 126.32 147.339 126.23 148.779 125.65" stroke="#D78A4B" stroke-width="2" stroke-linecap="round" stroke-linejoin="round"/>
<path d="M154.549 126.93C154.299 129.87 151.429 132.09 148.499 132.4C145.569 132.71 142.669 131.49 140.199 129.87C136.549 127.47 133.519 124.14 131.439 120.49C126.609 122.77 121.569 124.62 116.409 126.02" stroke="#CA4F23" stroke-width="2" stroke-linecap="round" stroke-linejoin="round"/>
<path d="M94.3991 158.95C93.0891 151.87 95.0991 144.25 99.7291 138.75C104.359 133.24 111.529 129.96 118.719 130.03" stroke="#37304F" stroke-width="2" stroke-linecap="round" stroke-linejoin="round"/>
<path d="M87.4591 165.55C87.5191 163.99 88.8291 162.71 90.2891 162.17C91.7491 161.64 93.3591 161.7 94.9191 161.77C99.4191 161.97 103.919 162.18 108.419 162.38" stroke="#37304F" stroke-width="2" stroke-linecap="round" stroke-linejoin="round"/>
<path d="M107.719 167.6C111.209 167.73 114.699 167.85 118.189 167.98" stroke="#A29CBB" stroke-width="2" stroke-linecap="round" stroke-linejoin="round"/>
<path d="M134.979 150.53C139.779 150.59 144.589 150.66 149.389 150.72" stroke="#A29CBB" stroke-width="2" stroke-linecap="round" stroke-linejoin="round"/>
<path d="M155.609 150.63C156.979 150.63 158.359 150.63 159.729 150.63" stroke="#A29CBB" stroke-width="2" stroke-linecap="round" stroke-linejoin="round"/>
<path d="M462.719 234.65C457.479 236.52 451.579 235.14 446.659 232.55C441.739 229.96 437.529 226.24 432.999 223.01C427.939 219.41 422.379 216.39 416.329 215C410.279 213.61 403.709 213.94 398.179 216.75C392.649 219.56 388.339 225.04 387.709 231.64C392.449 241.69 400.019 250.58 409.779 255.9C419.539 261.22 431.529 262.74 441.999 258.99C452.459 255.24 461.009 245.95 462.729 234.64L462.719 234.65Z" fill="#666537"/>
<path d="M403.199 231.37C407.349 238.29 412.159 244.82 417.549 250.83" stroke="#244039" stroke-width="2" stroke-linecap="round" stroke-linejoin="round"/>
<path d="M411.419 233.35C415.209 232.2 419.009 231.06 422.799 229.91" stroke="#244039" stroke-width="2" stroke-linecap="round" stroke-linejoin="round"/>
<path d="M414.179 221.71C409.159 224.63 404.139 227.56 399.119 230.48" stroke="#244039" stroke-width="2" stroke-linecap="round" stroke-linejoin="round"/>
<path d="M404.289 290.84C402.159 281.36 397.089 272.57 389.959 265.98C382.829 259.38 373.669 255.01 363.839 253.67C360.969 256.17 359.309 259.87 358.899 263.65C358.489 267.43 359.269 271.27 360.689 274.79C363.919 282.81 370.609 289.37 378.689 292.45C386.769 295.53 396.129 295.07 404.279 290.84H404.289Z" fill="#666537"/>
<path d="M375.519 216.86C374.459 224.14 371.059 231.06 365.949 236.35" stroke="#244039" stroke-width="2" stroke-linecap="round" stroke-linejoin="round"/>
<path d="M378.379 214.31C387.009 212.3 395.279 208.76 402.689 203.91C404.819 202.52 406.909 200.98 408.369 198.9C408.989 198.02 409.489 196.91 409.129 195.89C408.809 194.97 407.839 194.41 406.879 194.29C405.919 194.17 404.949 194.41 404.009 194.68C396.149 196.92 388.769 200.86 382.549 206.16C389.249 200.43 392.799 191.23 391.679 182.49C391.459 180.76 390.879 178.8 389.279 178.11C387.279 177.24 385.109 178.86 383.669 180.49C378.499 186.37 375.469 194.1 375.259 201.93C375.809 195.73 374.239 189.36 370.879 184.12C369.629 182.18 367.799 180.22 365.499 180.28C363.479 180.33 361.789 182.02 361.149 183.93C360.499 185.84 360.699 187.93 361.049 189.92C362.799 200.14 368.099 209.55 378.389 214.31H378.379Z" fill="#EAA94E"/>
<path d="M462.189 234.44C455.749 236.05 448.959 233.68 443.319 230.24C437.669 226.8 432.729 222.28 427.019 218.94C421.309 215.6 413.209 213.25 406.859 215.2" stroke="#244039" stroke-width="2" stroke-linecap="round" stroke-linejoin="round"/>
<path d="M388.189 231.22C390.219 239.89 396.789 247.18 404.109 252.26C411.429 257.34 419.409 260.28 428.319 260.45" stroke="#9E9C4D" stroke-width="2" stroke-linecap="round" stroke-linejoin="round"/>
<path d="M387.839 177.44C380.209 182.7 375.299 191.71 375.019 200.97" stroke="#EFC380" stroke-width="2" stroke-linecap="round" stroke-linejoin="round"/>
<path d="M383.469 205.39C389.109 200.43 395.609 196.22 402.899 194.39C403.909 194.14 404.959 193.93 405.979 194.13C406.999 194.33 407.979 195.04 408.219 196.05C408.509 197.26 407.689 198.44 406.869 199.38C404.029 202.64 400.619 205.41 396.829 207.49" stroke="#EFC380" stroke-width="2" stroke-linecap="round" stroke-linejoin="round"/>
<path d="M348.999 245.79C365.369 253.78 379.419 266.44 389.059 281.9" stroke="#244039" stroke-width="2" stroke-linecap="round" stroke-linejoin="round"/>
<path d="M374.089 263.69C374.679 269.21 375.269 274.74 375.859 280.26" stroke="#244039" stroke-width="2" stroke-linecap="round" stroke-linejoin="round"/>
<path d="M362.339 181.28C360.839 187.08 361.829 193.34 364.269 198.81C366.699 204.28 370.499 209.05 374.679 213.35" stroke="#EFC380" stroke-width="2" stroke-linecap="round" stroke-linejoin="round"/>
<path d="M363.119 254.19C374.249 254.75 385.019 260.41 391.799 269.25" stroke="#244039" stroke-width="2" stroke-linecap="round" stroke-linejoin="round"/>
<path d="M375.789 218.75C377.549 217.71 379.259 216.6 380.929 215.42C381.469 215.04 382.029 214.61 382.279 214C382.769 212.8 381.859 211.5 380.919 210.61C379.869 209.63 378.629 208.75 377.199 208.56C375.779 208.36 374.159 209.03 373.629 210.37C373.319 211.18 373.429 212.08 373.579 212.93C373.949 215.09 374.489 217.22 375.789 218.75Z" fill="#244039"/>
<path d="M404.469 290.51C398.739 293.82 391.869 295.13 385.319 294.16C378.769 293.19 372.579 289.95 368.049 285.12" stroke="#9E9C4D" stroke-width="2" stroke-linecap="round" stroke-linejoin="round"/>
<path d="M337.939 156.97C337.569 162.96 331.789 167.3 325.979 168.8C320.169 170.3 314.029 169.83 308.119 170.89C298.239 172.66 289.189 179 284.489 187.87C279.789 196.74 279.689 207.99 284.559 216.77C289.429 225.55 299.249 231.46 309.289 231.29C316.019 231.18 322.889 228.23 326.719 222.69C330.549 217.16 330.659 208.99 326.159 203.99C321.989 199.35 314.629 198.29 308.929 200.85C303.239 203.41 299.279 209.09 297.969 215.19C296.659 221.29 297.779 227.74 300.229 233.48C304.569 243.68 313.979 252.33 325.039 253.03C335.869 253.72 345.599 247.09 355.049 241.74C365.089 236.06 375.999 231.51 387.489 230.4C398.979 229.29 411.129 231.91 420.039 239.25" stroke="#244039" stroke-width="2" stroke-linecap="round" stroke-linejoin="round"/>
<path d="M364.199 110.12C370.509 103.14 376.849 96.14 383.919 89.93C384.849 89.12 385.839 88.29 387.049 88.05C388.259 87.81 389.719 88.39 390.029 89.58C390.349 90.78 389.419 91.93 388.569 92.83C381.809 100 375.049 107.16 368.289 114.33C366.919 113.26 365.729 111.95 364.199 110.12Z" fill="#325889"/>
<path d="M382.679 132.16C388.989 125.18 395.329 118.18 402.399 111.97C403.329 111.16 404.319 110.33 405.529 110.09C406.739 109.85 408.199 110.43 408.509 111.62C408.829 112.82 407.899 113.97 407.049 114.87C400.289 122.04 393.529 129.2 386.769 136.37C385.399 135.3 384.209 133.99 382.679 132.16Z" fill="#325889"/>
<path d="M399.209 141.17C385.179 125.97 371.139 110.77 357.159 95.64C351.009 101.06 345.079 106.12 339.069 111.42C333.059 116.72 327.719 123.83 327.889 131.84C327.989 136.71 330.129 141.31 332.779 145.4C336.709 151.48 341.779 156.71 346.819 161.9C350.329 165.51 354.199 169.32 359.179 170.08C363.749 170.78 368.289 168.73 372.239 166.33C382.659 160.02 391.219 151.07 399.219 141.17H399.209Z" fill="#325889"/>
<path d="M357.259 96.36C349.759 102.69 342.229 109.04 335.479 116.16C332.699 119.09 329.989 122.26 328.769 126.1C327.289 130.77 328.209 135.94 330.269 140.39C332.329 144.84 335.449 148.7 338.529 152.51" stroke="#325889" stroke-width="2" stroke-linecap="round" stroke-linejoin="round"/>
<path d="M391.569 143.49C384.889 152.63 375.989 160.14 365.859 165.19" stroke="#5683A0" stroke-width="2" stroke-linecap="round" stroke-linejoin="round"/>
<path d="M361.519 165.68C359.279 166.13 356.879 165.68 354.959 164.44" stroke="#5683A0" stroke-width="2" stroke-linecap="round" stroke-linejoin="round"/>
<path d="M371.979 145.09C370.149 141.5 368.439 138.16 366.909 134.74C370.559 132.72 374.199 131.92 377.829 131.12C374.299 126.89 370.959 123.34 367.689 119.96C366.659 120.78 354.059 125.01 352.619 125.09C352.439 126.56 355.989 132.64 358.379 137.37C353.079 139.9 347.769 142.42 342.069 145.58C345.609 145.65 365.369 145.06 371.989 145.09H371.979Z" fill="#EFC380"/>
<path d="M367.539 120.56C370.999 124.35 374.459 128.15 377.919 131.94C374.069 132.49 370.279 133.53 366.749 135.24C368.589 138.69 370.419 142.15 372.259 145.6C362.319 145.1 352.349 145.21 342.419 145.92" stroke="#EAA94E" stroke-width="2" stroke-linecap="round" stroke-linejoin="round"/>
<path d="M346.719 157.06C344.709 159.15 342.829 161.38 341.109 163.72C338.959 161.31 336.819 158.9 334.669 156.48C334.459 156.24 334.239 155.98 334.229 155.66C334.229 155.3 334.499 155 334.759 154.75C336.449 153.09 338.139 151.44 339.639 149.76C341.939 152.2 344.239 154.65 346.709 157.07L346.719 157.06Z" fill="#325889"/>
<path d="M340.749 149.59C338.879 150.77 337.079 152.07 335.369 153.47C334.879 153.87 334.359 154.36 334.319 154.99C334.289 155.58 334.689 156.09 335.069 156.54C336.989 158.82 338.909 161.1 340.829 163.37" stroke="#325889" stroke-width="2" stroke-linecap="round" stroke-linejoin="round"/>
<path d="M256.339 143.24C250.649 126.01 235.439 111.54 217.409 109.43C197.829 107.14 179.089 119.15 166.319 134.17C153.549 149.19 141.169 169.91 133.579 183.37C149.539 197.79 164.789 212.75 181.539 227.77C201.489 201.52 221.589 177.04 240.129 154.96C245.469 150.24 250.709 149.12 256.329 143.23L256.339 143.24Z" fill="#244039"/>
<path d="M304.209 157.34C299.879 158.83 295.719 160.82 291.859 163.26C278.369 141.24 265.689 120.32 246.989 105.52C238.019 98.42 226.919 92.7 215.579 94.18C205.739 95.46 197.289 101.03 189.999 107.76C176.969 119.79 161.769 138.71 156.049 147.99C166.489 138.35 174.189 138.95 182.799 141.72C191.409 144.5 195.809 150.78 201.889 157.47C214.349 171.17 225.109 186.31 236.779 201.86C233.169 204.76 229.559 207.67 226.289 210.72C249.239 224.83 273.329 237.08 299.529 248.01C307.719 218.64 310.529 187.78 304.209 157.33V157.34Z" fill="#3C6256"/>
<path d="M134.529 181.71C136.589 179 150.119 156.49 157.609 146.64C160.369 143.02 164.229 140.07 168.619 138.86C175.629 136.93 182.889 140.7 188.789 144.96C201.069 153.84 229.239 187.03 236.489 200.34" stroke="#567F6E" stroke-width="3" stroke-linecap="round" stroke-linejoin="round"/>
<path d="M200.799 113.03C206.889 106.62 216.879 105.02 225.409 107.34C233.939 109.67 241.189 115.36 247.279 121.77" stroke="#567F6E" stroke-width="3" stroke-linecap="round" stroke-linejoin="round"/>
<path d="M253.869 129.59C256.799 133.26 259.489 137.11 261.919 141.12" stroke="#567F6E" stroke-width="3" stroke-linecap="round" stroke-linejoin="round"/>
<path d="M297.059 177.79C300.009 191.26 300.309 205.31 297.939 218.89" stroke="#567F6E" stroke-width="3" stroke-linecap="round" stroke-linejoin="round"/>
<path d="M168.629 199.69C171.899 204.07 175.509 208.19 179.419 212.01C179.639 212.23 179.909 212.46 180.229 212.43C180.529 212.4 180.749 212.14 180.929 211.9C185.309 206.04 189.689 200.18 194.079 194.32" stroke="#3C6256" stroke-width="3" stroke-linecap="round" stroke-linejoin="round"/>
<path d="M239.609 197.44C235.989 200.43 231.519 205.9 226.299 210.72C249.219 224.59 271.469 237.4 296.619 246.65" stroke="#244039" stroke-width="3" stroke-linecap="round" stroke-linejoin="round"/>
<path d="M83.4391 318.86C71.4691 332.5 66.7191 352.95 74.0491 369.56C82.0091 387.6 101.859 397.66 121.289 401.04C140.709 404.42 164.849 404.59 180.299 404.3C184.629 383.23 189.789 362.5 194.239 340.45C161.499 336.57 130.199 331.67 101.769 326.88C94.9991 324.67 91.3691 320.73 83.4391 318.86Z" fill="#244039"/>
<path d="M71.3091 270.45C74.7891 273.43 78.6091 276 82.6791 278.09C70.5491 300.89 58.9491 322.42 55.6791 346.04C54.1091 357.37 54.8091 369.84 61.8391 378.86C67.9391 386.69 77.0191 391.14 86.5191 394.01C103.499 399.14 127.509 402.64 138.409 402.86C124.809 398.75 121.419 391.82 119.439 382.99C117.469 374.16 120.649 367.19 123.329 358.55C128.819 340.86 136.399 323.91 143.889 305.97C148.219 307.61 152.559 309.25 156.839 310.52C157.359 283.59 155.699 256.61 151.829 228.49C122.359 236.32 94.3391 249.56 71.3091 270.45Z" fill="#3C6256"/>
<path d="M178.379 404.32C174.999 403.92 148.729 403.68 136.449 402.22C131.929 401.68 127.429 399.85 124.159 396.68C118.939 391.62 118.499 383.44 119.189 376.2C120.619 361.11 135.409 320.58 143.209 307.58" stroke="#567F6E" stroke-width="3" stroke-linecap="round" stroke-linejoin="round"/>
<path d="M85.5691 382.05C76.9491 380.05 70.5091 372.26 68.1791 363.72C65.8591 355.19 67.0891 346.06 69.5191 337.55" stroke="#567F6E" stroke-width="3" stroke-linecap="round" stroke-linejoin="round"/>
<path d="M72.9291 327.91C74.5991 323.53 76.5591 319.25 78.7891 315.12" stroke="#567F6E" stroke-width="3" stroke-linecap="round" stroke-linejoin="round"/>
<path d="M92.5591 266.24C102.669 256.87 114.629 249.48 127.529 244.63" stroke="#567F6E" stroke-width="3" stroke-linecap="round" stroke-linejoin="round"/>
<path d="M176.579 365.82C178.689 360.78 180.409 355.58 181.729 350.28C181.809 349.98 181.869 349.62 181.689 349.37C181.509 349.13 181.179 349.07 180.879 349.04C173.609 348.24 166.339 347.43 159.059 346.63" stroke="#3C6256" stroke-width="3" stroke-linecap="round" stroke-linejoin="round"/>
<path d="M138.639 305.79C143.049 307.39 150.029 308.47 156.839 310.52C157.169 283.73 156.919 258.06 152.139 231.7" stroke="#244039" stroke-width="3" stroke-linecap="round" stroke-linejoin="round"/>
<path d="M159.489 268C161.449 262.99 165.589 252.66 170.769 251.19C175.949 249.73 181.789 250.83 186.079 254.08C183.519 249.98 182.939 244.6 184.959 240.22C186.979 235.83 191.699 232.71 196.529 232.98C201.349 233.25 205.839 237.15 206.409 241.95C206.209 237.61 206.539 233.13 208.459 229.23C210.379 225.34 214.149 222.13 218.479 221.88C222.489 221.65 226.349 223.97 228.789 227.17C231.219 230.37 232.409 234.35 233.789 239.4C235.929 235.64 240.799 233.69 244.939 234.92C249.079 236.15 252.089 240.45 251.839 244.76C258.289 241.99 266.289 243.28 271.539 247.94C276.789 252.6 279.039 260.38 277.009 267.99C274.789 267.43 161.479 268.22 159.489 267.99V268Z" fill="#F6E0C5"/>
<path d="M195.159 237.01C192.529 237.55 190.149 239.2 188.719 241.46C187.279 243.72 186.809 246.58 187.439 249.19" stroke="#F1F1F4" stroke-width="2" stroke-linecap="round" stroke-linejoin="round"/>
<path d="M198.739 237.9C199.929 237.78 201.159 238.23 201.989 239.09" stroke="#F1F1F4" stroke-width="2" stroke-linecap="round" stroke-linejoin="round"/>
<path d="M174.499 254.34C171.519 254.82 168.779 256.61 166.729 259.58C166.029 260.86 165.569 262.28 165.379 263.72" stroke="#F1F1F4" stroke-width="2" stroke-linecap="round" stroke-linejoin="round"/>
<path d="M201.649 261.57C200.309 259.87 199.999 257.39 200.959 255.44C201.919 253.49 204.109 252.2 206.269 252.38C208.429 252.56 210.409 254.21 210.899 256.33C211.169 254.83 211.449 253.32 212.049 251.92C212.649 250.52 213.619 249.23 214.959 248.52C217.219 247.34 220.209 248.13 221.859 250.07C223.509 252.01 223.869 254.85 223.109 257.28" stroke="#F1F1F4" stroke-width="2" stroke-linecap="round" stroke-linejoin="round"/>
<path d="M252.199 247.8C255.339 246.19 259.089 245.79 262.499 246.69C265.919 247.59 268.969 249.78 270.919 252.73" stroke="#F1F1F4" stroke-width="2" stroke-linecap="round" stroke-linejoin="round"/>
<path d="M432.649 428.2C423.939 430.25 414.679 429.94 406.129 427.31C404.059 426.67 401.789 425.67 401.069 423.63C400.459 421.89 401.199 419.97 402.089 418.35C404.419 414.11 408.019 410.38 412.599 408.83C417.189 407.29 422.789 408.34 425.849 412.08C429.489 416.54 428.879 423.44 432.649 428.19V428.2Z" fill="#CF673B"/>
<path d="M438.369 345.63C435.459 334.52 430.289 324.03 428.319 312.71C427.409 307.47 427.199 302.1 425.729 296.99C424.259 291.88 421.249 286.88 416.419 284.66C411.589 282.44 403.839 288.08 402.829 289C397.809 283.81 387.739 280.59 378.409 281.86C369.079 283.13 360.589 288.5 354.519 295.7C348.449 302.89 344.649 311.79 342.439 320.94C341.649 324.22 341.019 327.62 339.259 330.5C337.849 332.8 335.779 334.63 334.169 336.81C331.599 340.3 330.279 344.7 330.509 349.03C330.619 351.12 331.079 353.22 330.789 355.29C330.409 357.97 328.839 360.3 327.699 362.75C325.059 368.42 324.709 374.96 325.799 381.12C326.889 387.28 329.339 393.11 332.119 398.71C327.529 403.19 323.209 407.28 318.889 411.38C346.149 426 377.169 433.55 408.099 433.1C411.409 425.89 415.069 420.54 419.269 415.65C421.869 420.55 426.789 425 432.569 427.59C435.779 414.13 438.999 400.62 440.539 386.86C442.079 373.1 441.899 359.01 438.389 345.63H438.369ZM373.369 326.34C371.139 325.88 368.919 325.24 367.059 323.94C365.199 322.64 363.749 320.55 363.809 318.29C363.869 316.41 364.929 314.73 365.979 313.16C369.269 308.26 372.769 303.47 376.839 299.19C378.259 297.7 379.849 296.22 381.849 295.76C385.299 294.97 388.579 297.4 391.249 299.73C383.439 306.84 377.289 316.15 373.369 326.33V326.34ZM398.849 323.56C398.799 325.18 398.569 326.9 397.539 328.15C396.609 329.27 395.159 329.84 393.709 329.99C392.269 330.14 390.809 329.91 389.379 329.68C390.699 323.28 393.479 317.97 397.399 313.7C398.579 317.2 398.949 320.39 398.849 323.56ZM410.769 303.15C414.139 304.67 416.419 307.88 417.579 311.32C418.739 314.76 418.909 318.44 418.959 322.06C416.399 316.34 413.589 309.75 410.769 303.15Z" fill="#EAA94E"/>
<path d="M374.699 301.37C376.519 299.14 379.409 295.55 384.229 295.7C389.019 295.84 392.839 299.83 394.289 302.88C397.569 309.72 399.179 317.36 398.949 324.95C398.899 326.52 398.589 328.38 397.169 329.06" stroke="#CF673B" stroke-width="2" stroke-linecap="round" stroke-linejoin="round"/>
<path d="M364.589 315.46C363.499 317.23 363.959 319.63 365.199 321.3C366.429 322.97 368.299 324.05 370.169 324.96C375.089 327.36 380.409 328.9 385.849 329.52" stroke="#EFC380" stroke-width="2" stroke-linecap="round" stroke-linejoin="round"/>
<path d="M354.509 295.7C348.559 303.36 345.139 311.34 343.239 319.49C342.329 323.38 341.709 327.44 339.589 330.83C337.449 334.25 333.979 336.67 331.819 340.08C328.939 344.65 328.859 350.83 331.619 355.47" stroke="#CF673B" stroke-width="2" stroke-linecap="round" stroke-linejoin="round"/>
<path d="M427.169 301.9C427.169 319.1 433.389 331.94 436.549 340.72C441.539 354.53 442.549 369.51 441.259 384.12C439.969 398.73 436.429 413.05 432.519 427.19" stroke="#CF673B" stroke-width="2" stroke-linecap="round" stroke-linejoin="round"/>
<path d="M329.919 371.6C329.169 378.68 331.669 386.03 336.569 391.19" stroke="#CF673B" stroke-width="2" stroke-linecap="round" stroke-linejoin="round"/>
<path d="M366.769 415.95C355.319 413.93 344.399 409.03 334.829 401.27C350.689 407.03 367.769 409.42 384.599 408.25" stroke="#EFC380" stroke-width="2" stroke-linecap="round" stroke-linejoin="round"/>
<path d="M356.259 385.12C380.199 376.46 401.439 360.52 416.439 339.95" stroke="#EFC380" stroke-width="2" stroke-linecap="round" stroke-linejoin="round"/>
<path d="M402.819 342.67C385.369 357.24 363.019 365.83 340.299 366.71" stroke="#EFC380" stroke-width="2" stroke-linecap="round" stroke-linejoin="round"/>
<path d="M386.899 282.39C389.199 282.54 397.569 284.24 401.269 288.11C404.969 291.98 407.279 296.96 409.329 301.91C411.809 307.91 414.019 314.04 417.049 319.78C420.079 325.52 424.009 330.93 429.299 334.69" stroke="#EFC380" stroke-width="2" stroke-linecap="round" stroke-linejoin="round"/>
<path d="M74.4991 332.25C73.4191 319.11 77.5491 305.61 85.7991 295.32C94.0491 285.03 106.329 278.07 119.139 277.12C121.449 283.17 123.379 289.43 123.969 295.88C124.559 302.33 123.739 309.02 120.789 314.79C116.779 322.63 109.069 328.19 100.669 330.82C92.2691 333.45 83.2091 333.37 74.4991 332.25Z" fill="#666537"/>
<path d="M73.9691 330.32C73.2291 313.59 81.6591 296.74 95.4791 287.28" stroke="#9E9C4D" stroke-width="2" stroke-linecap="round" stroke-linejoin="round"/>
<path d="M119.149 277.45C123.519 284.65 125.439 293.31 124.499 301.68C123.559 310.05 119.779 318.07 113.919 324.12" stroke="#244039" stroke-width="2" stroke-linecap="round" stroke-linejoin="round"/>
<path d="M110.789 288.01C100.089 297.9 89.6691 308.24 81.2591 320.14C72.8491 332.04 66.4691 345.65 64.6291 360.11" stroke="#244039" stroke-width="2" stroke-linecap="round" stroke-linejoin="round"/>
<path d="M59.2191 342.47C59.4891 337.5 59.7591 332.54 60.0291 327.57C71.4391 321.72 78.1391 308.02 76.6791 295.09C75.2191 282.16 66.0991 270.6 54.1891 265.35C41.6291 259.82 26.1491 261.32 15.1091 269.47C4.06911 277.62 -1.93089 292.22 0.559109 305.72C3.04911 319.21 14.0891 330.83 27.5291 333.63C28.7791 337.91 30.4591 342.03 31.6691 346.19C41.1691 347.18 50.8691 346.21 59.2191 342.47Z" fill="#F6E0C5"/>
<path d="M43.3691 341.82C34.8191 330.83 28.0791 317.99 26.6091 304.14C26.4591 302.68 26.3591 301.18 26.7691 299.77C27.1791 298.36 28.1691 297.04 29.5791 296.62C30.8691 296.23 32.3091 296.67 33.3791 297.5C34.4391 298.33 35.1791 299.51 35.7691 300.72C37.1191 303.52 37.7691 306.65 37.6391 309.76C37.5991 310.83 37.1691 312.2 36.0891 312.23C35.2491 312.26 34.6691 311.41 34.3091 310.65C31.4291 304.64 31.1591 297.44 33.5691 291.24C34.2191 289.57 35.1491 287.87 36.7591 287.09C38.5391 286.23 40.7491 286.75 42.3191 287.95C43.8891 289.15 44.9191 290.92 45.7491 292.71C48.5991 298.85 49.5691 305.68 50.3091 312.41C51.2891 321.25 51.9291 330.14 52.2391 339.03" stroke="#5F5680" stroke-width="2" stroke-linecap="round" stroke-linejoin="round"/>
<path d="M24.2291 326.47C14.7691 322.64 8.07912 312.76 8.03912 302.55" stroke="#F1F1F4" stroke-width="2" stroke-linecap="round" stroke-linejoin="round"/>
<path d="M8.06909 298.49C8.19909 296.73 8.55909 295 9.13909 293.33" stroke="#F1F1F4" stroke-width="2" stroke-linecap="round" stroke-linejoin="round"/>
<path d="M67.8091 275.69C74.8391 282.86 78.2191 293.44 76.6491 303.36C75.0791 313.28 68.6091 322.3 59.9991 326.55C60.1991 330.87 60.0291 335.2 59.4891 339.48" stroke="#EAA94E" stroke-width="2" stroke-linecap="round" stroke-linejoin="round"/>
<path d="M59.5591 366.24C59.6291 369.71 59.6991 373.19 59.7691 376.66C55.8891 377.27 52.4491 378 49.0091 378.72C47.6691 375.25 46.5191 372.08 45.1891 368.51C49.9491 367.25 54.8091 366.34 59.5491 366.23L59.5591 366.24Z" fill="#5F5680"/>
<path d="M58.7691 336.5C60.4191 336.33 62.1291 336.17 63.7091 336.69C65.2891 337.22 66.6891 338.63 66.6491 340.29C66.6191 341.36 66.0191 342.32 65.4391 343.22C66.8491 342.86 68.4491 343.15 69.5491 344.11C70.6491 345.07 71.1691 346.69 70.6991 348.07C70.2291 349.45 68.7291 350.45 67.0091 350.78C68.8291 350.29 70.9091 351.72 71.1091 353.59C71.3091 355.46 69.5691 357.29 67.6891 357.19C69.3091 357.51 70.7391 358.69 71.3491 360.22C71.9591 361.75 71.7391 363.59 70.7691 364.94C69.2991 366.99 66.5691 367.61 64.0791 368.04C54.3991 369.73 39.8091 373.36 39.8091 373.36C37.3191 373.74 34.5291 374.03 32.4791 372.55C31.1391 371.58 30.3391 369.91 30.4291 368.26C30.5191 366.61 31.4891 365.04 32.9291 364.22C31.1791 364.91 28.9491 363.73 28.5391 361.9C28.1291 360.06 29.6491 358.04 31.5191 357.93C29.7791 358.16 28.0391 357.7 27.1591 356.54C26.2791 355.38 26.2491 353.67 26.9891 352.42C27.7291 351.16 29.1491 350.37 30.6091 350.26C29.7691 349.6 28.8891 348.88 28.5191 347.87C27.9491 346.31 28.8291 344.52 30.1591 343.52C31.4891 342.52 33.1591 342.13 34.7791 341.76L58.7591 336.48L58.7691 336.5Z" fill="#5F5680"/>
<path d="M29.2691 345.24C28.2391 345.75 27.9191 347.2 28.4091 348.23C28.9091 349.27 30.0291 349.9 31.1591 350.09C32.2891 350.28 33.4591 350.11 34.5891 349.92C40.4791 348.92 46.2691 347.35 51.8691 345.26" stroke="#37304F" stroke-width="2" stroke-linecap="round" stroke-linejoin="round"/>
<path d="M68.5091 343.85C69.3891 344.15 69.9791 345.06 70.0591 345.99C70.1391 346.92 69.7591 347.84 69.1891 348.58C67.7691 350.41 65.3491 351.07 63.0991 351.62C56.9291 353.14 50.7591 354.66 44.5891 356.19" stroke="#37304F" stroke-width="2" stroke-linecap="round" stroke-linejoin="round"/>
<path d="M30.4091 359.36C29.2591 359.49 28.5691 360.92 28.9391 362.03C29.3091 363.13 30.4291 363.84 31.5791 364.05C32.7191 364.26 33.8991 364.05 35.0391 363.86C41.1591 362.78 47.2791 361.71 53.3991 360.63" stroke="#37304F" stroke-width="2" stroke-linecap="round" stroke-linejoin="round"/>
<path d="M68.6891 357.83C70.9591 359.2 71.5591 362.7 69.8691 364.75C68.5791 366.32 66.4491 366.87 64.4591 367.32C59.7391 368.4 55.0291 369.49 50.3091 370.57" stroke="#37304F" stroke-width="2" stroke-linecap="round" stroke-linejoin="round"/>
<path d="M80.9091 375.62C83.8591 369.89 85.6391 363.56 86.1191 357.14C86.2891 354.81 86.2591 352.31 84.9991 350.34C83.0091 347.2 78.3391 346.53 75.0691 348.31C71.7991 350.09 69.8691 353.72 69.2391 357.38C68.6091 361.05 69.0791 364.8 69.5591 368.49C67.4191 362.03 64.5691 355.79 61.0891 349.94C59.4591 347.2 57.0191 344.21 53.8491 344.57C51.9791 344.79 50.4191 346.22 49.6191 347.92C48.8191 349.62 48.6691 351.55 48.6891 353.43C48.7991 361.19 51.7891 368.89 57.3991 375.08C52.2391 373.47 47.0291 371.85 41.6491 371.29C36.2691 370.73 30.6291 371.29 25.8691 373.85C24.3691 374.66 22.9291 375.69 22.0391 377.15C21.1491 378.61 20.9191 380.55 21.8091 382.01C22.5691 383.26 23.9891 383.95 25.3591 384.48C33.2991 387.6 42.2491 388.07 51.1191 386.57C42.7691 389.87 36.6491 398.2 36.0091 407.15C35.8591 409.25 36.0891 411.6 37.6391 413.01C39.4691 414.68 42.3491 414.35 44.6891 413.54C53.5391 410.5 59.6891 402.64 65.6491 395.23C64.8391 400.13 64.0391 405.1 64.5191 410.04C65.0091 414.98 66.9491 419.98 70.7891 423.13C72.6791 424.68 75.2491 425.75 77.5491 424.94C80.0591 424.06 81.3491 421.33 82.1191 418.79C84.8391 409.78 84.1091 399.77 80.2591 390.46C81.4091 391.03 93.0391 392.77 98.7291 391.73C104.419 390.69 108.069 389.09 111.849 384.71C113.439 382.87 114.829 380.47 114.229 378.11C113.549 375.44 110.649 374.03 107.989 373.29C99.2291 370.86 89.5291 372.04 80.9091 375.61V375.62Z" fill="#CF673B"/>
<path d="M74.8991 381.66C74.9891 379.82 75.0191 377.84 73.8891 376.32C72.6791 374.69 70.3191 374.01 68.1991 374.31C66.0791 374.61 64.1991 375.75 62.6691 377.13C61.4491 378.23 60.3891 379.54 59.9491 381.06C59.5091 382.58 59.7891 384.34 60.9591 385.48C61.9491 386.45 63.4291 386.87 64.8691 386.98C69.0191 387.31 74.7091 385.56 74.8991 381.66Z" fill="#EAA94E"/>
<path d="M113.969 379.47C114.189 382.95 111.549 385.99 108.659 387.93C104.539 390.7 99.6091 392.12 94.6491 392.42C89.6991 392.72 84.7191 391.93 79.6791 390.85C85.0891 400.89 85.1991 413.61 79.9591 423.74" stroke="#CA4F23" stroke-width="2" stroke-linecap="round" stroke-linejoin="round"/>
<path d="M69.7991 368.38C69.4691 365.77 69.1291 363.14 69.2191 360.51C69.3091 357.88 69.8391 355.22 71.1291 352.93C72.4191 350.64 74.5491 348.75 77.0991 348.09C79.6491 347.43 82.5991 348.16 84.2891 350.18C86.0191 352.24 86.2191 355.18 85.8891 357.84" stroke="#CA4F23" stroke-width="2" stroke-linecap="round" stroke-linejoin="round"/>
<path d="M28.1291 372.88C26.5491 373.57 24.9391 374.27 23.6591 375.42C22.3791 376.57 21.4491 378.25 21.6391 379.96C21.8091 381.49 22.8691 382.82 24.1491 383.68C25.4291 384.54 26.9491 384.98 28.4391 385.36C35.4291 387.16 42.6891 387.89 49.8991 387.52" stroke="#CA4F23" stroke-width="2" stroke-linecap="round" stroke-linejoin="round"/>
<path d="M39.2991 377.6C44.6891 378.06 50.0191 379.21 55.1291 380.99" stroke="#D78A4B" stroke-width="2" stroke-linecap="round" stroke-linejoin="round"/>
<path d="M51.9591 382.27C48.8691 382.07 45.7591 382.2 42.6991 382.65" stroke="#D78A4B" stroke-width="2" stroke-linecap="round" stroke-linejoin="round"/>
<path d="M56.4291 389.16L48.2491 395.66" stroke="#D78A4B" stroke-width="2" stroke-linecap="round" stroke-linejoin="round"/>
<path d="M58.1391 391.41C56.3591 393.91 54.5891 396.41 52.8091 398.9" stroke="#D78A4B" stroke-width="2" stroke-linecap="round" stroke-linejoin="round"/>
<path d="M83.3491 380.81C87.6391 380.15 91.9691 379.79 96.3091 379.75" stroke="#D78A4B" stroke-width="2" stroke-linecap="round" stroke-linejoin="round"/>
<path d="M83.6791 383.55C86.1691 383.99 88.6591 384.43 91.1591 384.87" stroke="#D78A4B" stroke-width="2" stroke-linecap="round" stroke-linejoin="round"/>
<path d="M75.8291 360C75.5491 362.97 75.1891 365.93 74.7591 368.88" stroke="#D78A4B" stroke-width="2" stroke-linecap="round" stroke-linejoin="round"/>
<path d="M81.1291 358.48C80.2291 362.53 78.8391 366.46 76.9791 370.17" stroke="#D78A4B" stroke-width="2" stroke-linecap="round" stroke-linejoin="round"/>
<path d="M71.3991 394.1C71.2891 397.58 71.1791 401.06 71.0791 404.54" stroke="#D78A4B" stroke-width="2" stroke-linecap="round" stroke-linejoin="round"/>
<path d="M73.8191 394.03C74.6691 398.45 75.7491 402.83 77.0691 407.13" stroke="#D78A4B" stroke-width="2" stroke-linecap="round" stroke-linejoin="round"/>
<path d="M57.3891 363.44C58.7391 365.51 60.1891 367.52 61.7391 369.44" stroke="#D78A4B" stroke-width="2" stroke-linecap="round" stroke-linejoin="round"/>
<path d="M58.5091 354.4C60.5191 358.93 62.5191 363.46 64.5291 367.98" stroke="#D78A4B" stroke-width="2" stroke-linecap="round" stroke-linejoin="round"/>
<path d="M247.859 263.37C243.129 256.26 238.249 248.68 237.909 240.15C237.759 236.33 238.549 232.54 239.379 228.81C242.559 214.57 246.449 200.48 251.629 186.05C254.169 203.97 256.699 222.2 253.939 240.09C252.719 248.02 250.469 255.74 247.849 263.37H247.859Z" fill="#A29CBB"/>
<path d="M248.349 263.7C256.869 263.18 265.879 262.76 273.429 266.76C276.809 268.55 279.689 271.13 282.499 273.73C293.219 283.63 303.449 294.07 313.329 305.79C296.559 298.99 279.519 292.03 265.439 280.66C259.199 275.62 253.649 269.8 248.369 263.71L248.349 263.7Z" fill="#A29CBB"/>
<path d="M246.069 264.42C242.519 272.37 238.689 280.69 231.669 285.86C227.409 289 222.289 290.72 217.229 292.25C195.089 298.96 174.919 301.95 174.919 301.95C185.519 291.99 197.809 284.02 210.029 276.11C213.829 273.65 217.649 271.18 221.859 269.51C229.739 266.38 238.539 266.24 246.519 263.37" fill="#A29CBB"/>
<path d="M244.849 263.28C241.889 308.82 239.199 349.29 240.059 391.46C244.299 394.31 250.039 394.75 253.449 392.41C250.939 349.42 249.759 307.45 249.759 263.28C248.179 263.55 246.699 263.34 244.839 263.28H244.849Z" fill="#BA9487"/>
<path d="M243.399 285.72C242.029 324.58 240.359 359.25 239.229 391.28C243.049 393.38 247.639 394.06 251.899 393.14" stroke="#88625D" stroke-width="2" stroke-linecap="round" stroke-linejoin="round"/>
<path d="M239.229 351.73C243.189 353.9 247.909 353.95 251.899 351.86C251.829 351.65 251.769 351.44 251.699 351.23" stroke="#88625D" stroke-width="2" stroke-linecap="round" stroke-linejoin="round"/>
<path d="M240.699 336.41C244.039 338.21 248.039 338.14 251.329 336.24" stroke="#88625D" stroke-width="2" stroke-linecap="round" stroke-linejoin="round"/>
<path d="M240.969 320.36C244.079 322.53 248.119 322.63 251.299 320.63" stroke="#88625D" stroke-width="2" stroke-linecap="round" stroke-linejoin="round"/>
<path d="M246.389 264.47C242.499 272.26 238.239 280.26 231.249 285.45C226.399 289.05 220.569 291.05 214.789 292.83C201.989 296.78 188.939 299.94 175.739 302.27" stroke="#5F5680" stroke-width="2" stroke-linecap="round" stroke-linejoin="round"/>
<path d="M235.249 270.2C231.439 270.73 227.629 271.26 223.699 271.84C220.909 273.61 218.119 275.38 215.329 277.15" stroke="#F6E0C5" stroke-width="2" stroke-linecap="round" stroke-linejoin="round"/>
<path d="M211.889 279.95C210.379 280.82 208.859 281.7 207.349 282.57" stroke="#F6E0C5" stroke-width="2" stroke-linecap="round" stroke-linejoin="round"/>
<path d="M251.529 186.42C252.739 200.53 253.959 214.65 255.489 228.6C254.039 238.73 252.119 248.79 249.759 258.74" stroke="#5F5680" stroke-width="2" stroke-linecap="round" stroke-linejoin="round"/>
<path d="M244.849 251.62C243.679 248.89 242.499 246.15 241.789 243.26C241.079 240.38 240.839 237.32 241.559 234.44" stroke="#F6E0C5" stroke-width="2" stroke-linecap="round" stroke-linejoin="round"/>
<path d="M242.429 230.62C242.849 229.1 243.259 227.58 243.679 226.06" stroke="#F6E0C5" stroke-width="2" stroke-linecap="round" stroke-linejoin="round"/>
<path d="M257.549 273.14C262.059 278.17 266.989 282.81 272.059 286.81C285.079 293.18 298.269 299.2 311.599 304.87" stroke="#5F5680" stroke-width="2" stroke-linecap="round" stroke-linejoin="round"/>
<path d="M259.969 266.96C265.759 266.96 271.529 268.99 276.049 272.6" stroke="#F6E0C5" stroke-width="2" stroke-linecap="round" stroke-linejoin="round"/>
<path d="M242.009 260.9C241.089 262.65 241.059 264.86 242.049 266.57C243.039 268.28 245.009 269.39 246.989 269.29C248.499 269.21 249.919 268.46 251.029 267.44C252.389 266.19 253.349 264.45 253.449 262.61C253.559 260.77 252.839 258.66 251.199 257.82C249.139 256.77 244.099 256.9 242.009 260.91V260.9Z" fill="#5F5680"/>
<path d="M278.929 274.81C280.999 276.74 283.059 278.66 285.129 280.59" stroke="#F6E0C5" stroke-width="2" stroke-linecap="round" stroke-linejoin="round"/>
<path d="M314.339 381.77C332.129 385.36 352.229 379.31 362.989 364.69C374.679 348.81 373.519 326.59 366.799 308.05C360.069 289.52 348.199 268.5 340.269 255.24C319.839 261.97 299.289 267.8 277.949 274.91C290.869 305.24 302.189 334.83 312.189 361.87C313.639 368.85 312.029 373.95 314.359 381.76L314.339 381.77Z" fill="#244039"/>
<path d="M278.379 416.38C279.229 411.88 279.559 407.29 279.349 402.71C305.159 401.89 329.609 401.24 351.729 392.32C362.339 388.04 372.799 381.23 377.139 370.65C380.899 361.47 380.239 351.37 378.009 341.7C374.009 324.42 365.099 301.85 359.869 292.28C363.069 306.12 358.749 312.52 352.069 318.62C345.389 324.72 337.759 325.43 328.929 327.41C310.859 331.45 292.379 333.3 273.089 335.74C272.359 331.16 271.619 326.59 270.589 322.24C246.969 335.19 224.399 350.05 201.919 367.4C223.379 389.06 248.799 406.78 278.379 416.37V416.38Z" fill="#3C6256"/>
<path d="M341.239 256.89C342.579 260.03 355.429 282.93 360.279 294.31C362.059 298.5 362.709 303.32 361.589 307.73C359.799 314.78 352.919 319.22 346.299 322.23C332.499 328.5 291.879 335.6 276.719 335.29" stroke="#567F6E" stroke-width="3" stroke-linecap="round" stroke-linejoin="round"/>
<path d="M368.089 348.48C370.639 356.95 367.089 366.42 360.839 372.68C354.589 378.94 346.059 382.42 337.479 384.53" stroke="#567F6E" stroke-width="3" stroke-linecap="round" stroke-linejoin="round"/>
<path d="M327.419 386.38C322.779 387.11 318.099 387.54 313.409 387.66" stroke="#567F6E" stroke-width="3" stroke-linecap="round" stroke-linejoin="round"/>
<path d="M264.159 400.04C250.999 395.93 238.649 389.24 228.019 380.45" stroke="#567F6E" stroke-width="3" stroke-linecap="round" stroke-linejoin="round"/>
<path d="M308.739 277.61C303.319 278.29 297.949 279.38 292.699 280.88C292.399 280.97 292.059 281.08 291.929 281.37C291.809 281.65 291.929 281.96 292.049 282.24C294.969 288.95 297.889 295.66 300.809 302.37" stroke="#3C6256" stroke-width="3" stroke-linecap="round" stroke-linejoin="round"/>
<path d="M275.539 340.39C274.729 335.77 272.199 329.17 270.589 322.25C247.189 335.3 225.039 348.28 204.559 365.55" stroke="#244039" stroke-width="3" stroke-linecap="round" stroke-linejoin="round"/>
<path d="M336.249 415.68C349.519 399.94 362.799 384.2 376.069 368.45C376.969 367.38 377.989 366.25 379.379 366.06C381.679 365.75 383.469 368.43 383.179 370.74C382.889 373.04 381.269 374.92 379.729 376.66C366.949 391.09 355.139 406.37 344.389 422.37C347.669 425.34 350.639 427.75 353.599 430.17C365.869 412.51 378.179 395.43 390.499 378.35C392.799 375.16 395.209 371.54 394.679 367.65C394.349 365.28 392.939 363.17 391.169 361.56C389.399 359.95 387.289 358.77 385.209 357.61C382.519 356.11 379.579 354.57 376.539 355C373.129 355.48 370.589 358.28 368.379 360.92C354.979 376.92 342.419 393.6 329.119 410.45C331.679 412.48 334.249 414.51 336.269 415.69L336.249 415.68Z" fill="#F6E0C5"/>
<path d="M333.169 409.3C346.439 393.56 359.719 377.82 372.989 362.07C373.889 361 374.909 359.87 376.299 359.68C378.599 359.37 380.389 362.05 380.099 364.36C379.809 366.66 378.189 368.54 376.649 370.28C363.869 384.71 352.059 399.99 341.309 415.99C344.589 418.96 347.559 421.37 350.519 423.79C362.789 406.13 375.099 389.05 387.419 371.97C389.719 368.78 392.129 365.16 391.599 361.27C391.269 358.9 389.859 356.79 388.089 355.18C386.319 353.57 384.209 352.39 382.129 351.23C379.439 349.73 376.499 348.19 373.459 348.62C370.049 349.1 367.509 351.9 365.299 354.54C351.899 370.54 339.339 387.22 326.039 404.07C328.599 406.1 331.169 408.13 333.189 409.31L333.169 409.3Z" fill="#F6E0C5"/>
<path d="M391.039 359.43C391.589 363.15 390.509 366.96 388.749 370.29C386.989 373.62 384.579 376.55 382.239 379.49C373.509 390.48 362.199 408.56 353.359 419.68" stroke="#EAA94E" stroke-width="2" stroke-linecap="round" stroke-linejoin="round"/>
<path d="M381.519 358.67C383.189 360.27 383.539 362.89 382.979 365.13C382.419 367.37 381.089 369.34 379.789 371.25" stroke="#F1F1F4" stroke-width="2" stroke-linecap="round" stroke-linejoin="round"/>
<path d="M377.829 374.5C376.949 375.6 376.069 376.69 375.179 377.79" stroke="#F1F1F4" stroke-width="2" stroke-linecap="round" stroke-linejoin="round"/>
<path d="M355.139 372.41C349.089 380.23 343.049 388.06 336.999 395.88" stroke="#F1F1F4" stroke-width="2" stroke-linecap="round" stroke-linejoin="round"/>
<path d="M320.109 446.13C318.159 444.69 316.419 442.95 314.989 441C314.619 440.5 314.259 439.93 314.299 439.31C314.359 438.38 315.359 437.74 316.289 437.72C317.219 437.71 318.089 438.15 318.919 438.58C317.439 438 316.799 435.93 317.689 434.61C318.579 433.29 320.739 433.12 321.829 434.27C320.589 433.86 320.229 432.08 320.959 431C321.689 429.92 323.149 429.53 324.439 429.7C325.729 429.87 326.909 430.52 328.049 431.14C329.789 432.1 331.529 433.06 333.089 434.29C334.019 435.03 334.909 435.9 335.339 437C335.769 438.11 335.649 439.5 334.789 440.32C333.919 441.14 332.269 441.04 331.729 439.98C333.139 440.54 333.709 442.57 332.779 443.78C331.859 444.99 329.749 444.99 328.829 443.78C330.229 444.75 330.139 447.06 328.919 448.24C327.699 449.42 325.769 449.6 324.139 449.11C322.509 448.63 321.549 447.17 320.119 446.11L320.109 446.13Z" fill="#5F5680"/>
<path d="M379.969 393.77C371.459 405.5 362.949 417.23 354.449 428.96" stroke="#EAA94E" stroke-width="2" stroke-linecap="round" stroke-linejoin="round"/>
<path d="M338.849 440.68C333.709 438.71 328.949 435.74 324.919 431.97C321.839 429.09 319.109 425.58 318.269 421.41C317.519 417.67 318.379 413.72 319.979 410.22C321.579 406.73 323.879 403.61 326.159 400.52C337.589 408.82 348.949 418.19 360.349 427.78C357.649 431.32 354.899 434.92 351.339 437.56C347.779 440.2 343.069 442.29 338.859 440.68H338.849Z" fill="#666537"/>
<path d="M317.659 441.69C317.499 442.71 316.749 443.51 316.179 444.36C315.609 445.21 315.199 446.37 315.759 447.24C316.099 447.77 316.719 448.05 317.249 448.39C317.809 448.75 318.289 449.21 318.849 449.57C319.409 449.93 320.069 450.19 320.719 450.08C322.589 449.77 323.059 446.88 324.909 446.47" fill="#5F5680"/>
<path d="M327.659 405.92C322.819 410.07 320.649 417.1 322.329 423.25" stroke="#9E9C4D" stroke-width="2" stroke-linecap="round" stroke-linejoin="round"/>
<path d="M360.279 428.03C357.819 431.45 354.959 434.58 351.769 437.34C349.879 438.97 347.779 440.52 345.329 441.01C343.109 441.45 340.809 440.98 338.649 440.29C334.199 438.87 330.049 436.5 326.559 433.38" stroke="#4F5130" stroke-width="2" stroke-linecap="round" stroke-linejoin="round"/>
<path d="M317.649 437.73C318.139 438.08 322.249 441.99 323.429 442.8" stroke="#A29CBB" stroke-width="2" stroke-linecap="round" stroke-linejoin="round"/>
<path d="M332.719 440.7C332.349 440.05 325.689 435.23 325.689 435.23" stroke="#A29CBB" stroke-width="2" stroke-linecap="round" stroke-linejoin="round"/>
</svg>
