<svg width="83" height="60" viewBox="0 0 83 60" fill="none" xmlns="http://www.w3.org/2000/svg">
<g id="Group">
<path id="Vector" d="M62.1995 20.7795L59.3572 10.1747C60.8238 9.51663 61.8453 8.04359 61.8453 6.33198C61.8453 4.00699 59.9605 2.12222 57.6355 2.12222H45.9756C43.6507 2.12222 41.7659 4.00699 41.7659 6.33198C41.7659 8.65697 43.6507 10.5417 45.9756 10.5417H50.7401L52.1247 15.7104L31.9728 21.1115L30.3733 15.1441C32.3545 14.8019 33.8615 13.0749 33.8615 10.9959C33.8615 8.67095 31.9768 6.78618 29.6518 6.78618H20.3239C17.9989 6.78618 16.1141 8.67095 16.1141 10.9959C16.1141 13.3209 17.9989 15.2057 20.3239 15.2057H21.6723L23.2283 21.0088C22.2818 20.8569 21.3116 20.7781 20.3239 20.7781C10.2714 20.7781 2.12222 28.9272 2.12222 38.9797C2.12222 49.0322 10.2714 57.1813 20.3239 57.1813C30.3763 57.1813 38.5255 49.0322 38.5255 38.9797V38.9639L38.5252 38.948L38.5158 38.3868L38.5155 38.371L38.515 38.3551C38.3969 34.8606 37.2931 31.615 35.4747 28.8894L50.9635 24.7387C46.7806 28.0725 44.0979 33.2115 44.0979 38.9797C44.0979 49.0322 52.247 57.1813 62.2995 57.1813C72.352 57.1813 80.5011 49.0322 80.5011 38.9797C80.5011 28.9272 72.352 20.7781 62.2995 20.7781H62.2837L62.2678 20.7783L62.1995 20.7795Z" fill="url(#paint0_linear_26_43)" stroke="#142C35" stroke-width="3.75556"/>
</g>
<defs>
<linearGradient id="paint0_linear_26_43" x1="41.3117" y1="4" x2="41.3117" y2="55.3036" gradientUnits="userSpaceOnUse">
<stop stop-color="#142C35"/>
<stop offset="1" stop-color="#C2E890"/>
</linearGradient>
</defs>
</svg>
