<svg width="55" height="77" viewBox="0 0 55 77" fill="none" xmlns="http://www.w3.org/2000/svg">
<g filter="url(#filter0_dd_26_40)">
<mask id="path-1-outside-1_26_40" maskUnits="userSpaceOnUse" x="20.5173" y="-0.00012207" width="19" height="19" fill="black">
<rect fill="white" x="20.5173" y="-0.00012207" width="19" height="19"/>
<path d="M30.2544 15.4728C33.4223 15.4728 35.9904 12.9047 35.9904 9.73574C35.9904 6.56797 33.4223 3.99988 30.2544 3.99988C27.0854 3.99988 24.5173 6.56797 24.5173 9.73586C24.5173 12.9047 27.0854 15.4728 30.2544 15.4728Z"/>
</mask>
<path d="M30.2544 15.4728C33.4223 15.4728 35.9904 12.9047 35.9904 9.73574C35.9904 6.56797 33.4223 3.99988 30.2544 3.99988C27.0854 3.99988 24.5173 6.56797 24.5173 9.73586C24.5173 12.9047 27.0854 15.4728 30.2544 15.4728Z" fill="url(#paint0_linear_26_40)"/>
<path d="M30.2544 15.4728C33.4223 15.4728 35.9904 12.9047 35.9904 9.73574C35.9904 6.56797 33.4223 3.99988 30.2544 3.99988C27.0854 3.99988 24.5173 6.56797 24.5173 9.73586C24.5173 12.9047 27.0854 15.4728 30.2544 15.4728Z" stroke="#142C35" stroke-width="6.22687" mask="url(#path-1-outside-1_26_40)"/>
<mask id="path-2-outside-2_26_40" maskUnits="userSpaceOnUse" x="4" y="14.8977" width="47" height="55" fill="black">
<rect fill="white" x="4" y="14.8977" width="47" height="55"/>
<path d="M45.849 32.6087L39.2787 29.1543L36.5093 23.4648C35.113 20.5947 32.135 23.4985 28.9957 22.9152L26.1466 22.3853C24.7136 22.1198 20.231 18.3709 20.231 18.9605L13.9196 21.9114C12.998 22.3462 12.2698 23.1031 11.8693 24.0381L8.1793 32.6541C7.94477 33.2018 7.9403 33.8204 8.16601 34.3701C8.39172 34.9212 8.82984 35.3594 9.37985 35.5851L9.46274 35.6183C10.5625 36.0685 11.8228 35.5719 12.3208 34.4929L15.7077 27.1581L21.0686 25.4254L15.7565 49.0342L10.5826 61.9344C10.296 62.6493 10.3281 63.4515 10.669 64.1408C11.0097 64.8312 11.6281 65.3435 12.3695 65.5505L12.5931 65.6124C13.7825 65.9443 15.045 65.4298 15.6645 64.3609L21.7967 53.7687L25.4502 46.5192L32.1178 53.8772L37.0428 64.3113C37.5981 65.4874 38.9115 66.1036 40.1707 65.7773L40.226 65.7618C40.9574 65.5726 41.5748 65.0869 41.9333 64.4218C42.2886 63.7568 42.3526 62.9724 42.1071 62.2586L38.4834 51.755C37.9745 50.2779 37.2199 48.8981 36.2517 47.6722L30.3675 39.8915L32.5262 28.6641L35.3123 32.2037C35.6564 32.6418 36.1022 32.9915 36.6101 33.2218L43.9393 36.531C44.4694 36.7702 45.0735 36.7845 45.6145 36.5709C46.1557 36.3573 46.5872 35.9337 46.8107 35.3969L46.8339 35.3405C47.2629 34.3126 46.8349 33.1277 45.849 32.6087Z"/>
</mask>
<path d="M45.849 32.6087L39.2787 29.1543L36.5093 23.4648C35.113 20.5947 32.135 23.4985 28.9957 22.9152L26.1466 22.3853C24.7136 22.1198 20.231 18.3709 20.231 18.9605L13.9196 21.9114C12.998 22.3462 12.2698 23.1031 11.8693 24.0381L8.1793 32.6541C7.94477 33.2018 7.9403 33.8204 8.16601 34.3701C8.39172 34.9212 8.82984 35.3594 9.37985 35.5851L9.46274 35.6183C10.5625 36.0685 11.8228 35.5719 12.3208 34.4929L15.7077 27.1581L21.0686 25.4254L15.7565 49.0342L10.5826 61.9344C10.296 62.6493 10.3281 63.4515 10.669 64.1408C11.0097 64.8312 11.6281 65.3435 12.3695 65.5505L12.5931 65.6124C13.7825 65.9443 15.045 65.4298 15.6645 64.3609L21.7967 53.7687L25.4502 46.5192L32.1178 53.8772L37.0428 64.3113C37.5981 65.4874 38.9115 66.1036 40.1707 65.7773L40.226 65.7618C40.9574 65.5726 41.5748 65.0869 41.9333 64.4218C42.2886 63.7568 42.3526 62.9724 42.1071 62.2586L38.4834 51.755C37.9745 50.2779 37.2199 48.8981 36.2517 47.6722L30.3675 39.8915L32.5262 28.6641L35.3123 32.2037C35.6564 32.6418 36.1022 32.9915 36.6101 33.2218L43.9393 36.531C44.4694 36.7702 45.0735 36.7845 45.6145 36.5709C46.1557 36.3573 46.5872 35.9337 46.8107 35.3969L46.8339 35.3405C47.2629 34.3126 46.8349 33.1277 45.849 32.6087Z" fill="url(#paint1_linear_26_40)"/>
<path d="M45.849 32.6087L39.2787 29.1543L36.5093 23.4648C35.113 20.5947 32.135 23.4985 28.9957 22.9152L26.1466 22.3853C24.7136 22.1198 20.231 18.3709 20.231 18.9605L13.9196 21.9114C12.998 22.3462 12.2698 23.1031 11.8693 24.0381L8.1793 32.6541C7.94477 33.2018 7.9403 33.8204 8.16601 34.3701C8.39172 34.9212 8.82984 35.3594 9.37985 35.5851L9.46274 35.6183C10.5625 36.0685 11.8228 35.5719 12.3208 34.4929L15.7077 27.1581L21.0686 25.4254L15.7565 49.0342L10.5826 61.9344C10.296 62.6493 10.3281 63.4515 10.669 64.1408C11.0097 64.8312 11.6281 65.3435 12.3695 65.5505L12.5931 65.6124C13.7825 65.9443 15.045 65.4298 15.6645 64.3609L21.7967 53.7687L25.4502 46.5192L32.1178 53.8772L37.0428 64.3113C37.5981 65.4874 38.9115 66.1036 40.1707 65.7773L40.226 65.7618C40.9574 65.5726 41.5748 65.0869 41.9333 64.4218C42.2886 63.7568 42.3526 62.9724 42.1071 62.2586L38.4834 51.755C37.9745 50.2779 37.2199 48.8981 36.2517 47.6722L30.3675 39.8915L32.5262 28.6641L35.3123 32.2037C35.6564 32.6418 36.1022 32.9915 36.6101 33.2218L43.9393 36.531C44.4694 36.7702 45.0735 36.7845 45.6145 36.5709C46.1557 36.3573 46.5872 35.9337 46.8107 35.3969L46.8339 35.3405C47.2629 34.3126 46.8349 33.1277 45.849 32.6087Z" stroke="#142C35" stroke-width="6.22687" mask="url(#path-2-outside-2_26_40)"/>
</g>
<defs>
<filter id="filter0_dd_26_40" x="0.886597" y="0.886475" width="53.2275" height="76.0916" filterUnits="userSpaceOnUse" color-interpolation-filters="sRGB">
<feFlood flood-opacity="0" result="BackgroundImageFix"/>
<feColorMatrix in="SourceAlpha" type="matrix" values="0 0 0 0 0 0 0 0 0 0 0 0 0 0 0 0 0 0 127 0" result="hardAlpha"/>
<feOffset dy="4"/>
<feGaussianBlur stdDeviation="2"/>
<feComposite in2="hardAlpha" operator="out"/>
<feColorMatrix type="matrix" values="0 0 0 0 0 0 0 0 0 0 0 0 0 0 0 0 0 0 0.25 0"/>
<feBlend mode="normal" in2="BackgroundImageFix" result="effect1_dropShadow_26_40"/>
<feColorMatrix in="SourceAlpha" type="matrix" values="0 0 0 0 0 0 0 0 0 0 0 0 0 0 0 0 0 0 127 0" result="hardAlpha"/>
<feOffset dy="4"/>
<feGaussianBlur stdDeviation="2"/>
<feComposite in2="hardAlpha" operator="out"/>
<feColorMatrix type="matrix" values="0 0 0 0 0 0 0 0 0 0 0 0 0 0 0 0 0 0 0.25 0"/>
<feBlend mode="normal" in2="effect1_dropShadow_26_40" result="effect2_dropShadow_26_40"/>
<feBlend mode="normal" in="SourceGraphic" in2="effect2_dropShadow_26_40" result="shape"/>
</filter>
<linearGradient id="paint0_linear_26_40" x1="30.2539" y1="3.99988" x2="30.2539" y2="15.4728" gradientUnits="userSpaceOnUse">
<stop stop-color="#244039"/>
<stop offset="1" stop-color="#C2E890"/>
</linearGradient>
<linearGradient id="paint1_linear_26_40" x1="27.5" y1="17.3282" x2="27.5" y2="65.8641" gradientUnits="userSpaceOnUse">
<stop stop-color="#244039"/>
<stop offset="1" stop-color="#C2E890"/>
</linearGradient>
</defs>
</svg>
