<svg width="86" height="46" viewBox="0 0 86 46" fill="none" xmlns="http://www.w3.org/2000/svg">
<path id="Vector" d="M68.3779 16.8521L69.1283 17.8333H70.3636H78.1818C81.1865 17.8333 83.5 20.1716 83.5 23V29.5C83.5 30.8807 82.3807 32 81 32H78.1818H75.6818V34.5C75.6818 39.4367 71.6093 43.5 66.4545 43.5C61.2998 43.5 57.2273 39.4367 57.2273 34.5V32H54.7273H31.2727H28.7727V34.5C28.7727 39.4367 24.7002 43.5 19.5455 43.5C14.3907 43.5 10.3182 39.4367 10.3182 34.5V32H7.81818H5C3.61929 32 2.5 30.8807 2.5 29.5V23C2.5 20.1716 4.81345 17.8333 7.81818 17.8333H9.0535L9.80396 16.8521L20.0303 3.48123C20.5033 2.86277 21.2375 2.5 22.0161 2.5H56.1657C56.9443 2.5 57.6785 2.86277 58.1515 3.48123L68.3779 16.8521ZM39.6364 5.75V3.25H37.1364H24.9359C22.6103 3.25 20.4162 4.32892 18.9962 6.17079L13.1092 13.8069L10.005 17.8333H15.0891H37.1364H39.6364V15.3333V5.75ZM43 3.25H40.5V5.75V15.3333V17.8333H43H63.0927H68.1768L65.0726 13.8069L59.1856 6.17079C57.7657 4.32892 55.5716 3.25 53.2459 3.25H43ZM19.5455 26.25C14.9665 26.25 11.1818 29.8917 11.1818 34.5C11.1818 39.1083 14.9665 42.75 19.5455 42.75C24.1244 42.75 27.9091 39.1083 27.9091 34.5C27.9091 29.8917 24.1244 26.25 19.5455 26.25ZM66.4545 26.25C61.8756 26.25 58.0909 29.8917 58.0909 34.5C58.0909 39.1083 61.8756 42.75 66.4545 42.75C71.0334 42.75 74.8182 39.1083 74.8182 34.5C74.8182 29.8917 71.0334 26.25 66.4545 26.25Z" fill="url(#paint0_linear_26_35)" stroke="#142C35" stroke-width="5"/>
<defs>
<linearGradient id="paint0_linear_26_35" x1="18.5682" y1="9.34168e-07" x2="90.0415" y2="47.2773" gradientUnits="userSpaceOnUse">
<stop stop-color="#142C35"/>
<stop offset="1" stop-color="#C2E890"/>
</linearGradient>
</defs>
</svg>
