<svg width="113" height="73" viewBox="0 0 113 73" fill="none" xmlns="http://www.w3.org/2000/svg">
<mask id="path-1-outside-1_30_62" maskUnits="userSpaceOnUse" x="0" y="-1" width="113" height="74" fill="black">
<rect fill="white" y="-1" width="113" height="74"/>
<path d="M94.0334 34.2546C90.8271 34.2546 87.8168 35.1409 85.2078 36.6854L80.5576 30.2341C86.463 25.7234 92.5297 23.6539 93.0533 23.4811C93.7059 23.2642 94.2364 22.7628 94.5085 22.1094C94.7805 21.4539 94.769 20.7068 94.4738 20.0631C86.4848 2.57957 74.0974 1.06826 73.5737 1.01262C72.5704 0.908935 71.6548 1.45129 71.2191 2.36959C70.7808 3.29025 70.9353 4.39674 71.604 5.15098C73.0733 6.79959 73.682 8.58338 73.4632 10.6053C73.3685 11.486 73.1229 12.383 72.7643 13.2797C59.2862 8.67334 50.6892 15.2359 47.6534 18.2241C40.1281 15.4541 33.3619 14.0546 27.4306 14.0546C18.2883 14.0546 14.4344 17.4335 14.0239 17.8193C13.3552 18.4481 13.0852 19.422 13.3318 20.3285C13.5788 21.2347 14.296 21.9141 15.1815 22.0832C23.875 23.7294 29.9526 26.8325 34.1914 30.5059L28.6987 37.2585C25.8923 35.3613 22.5528 34.2546 18.9686 34.2546C9.06062 34.2546 1 42.6783 1 53.0307C1 63.385 9.06062 71.8087 18.9688 71.8087C28.8768 71.8087 36.9377 63.385 36.9377 53.0307C36.9377 48.1973 35.1798 43.7853 32.2979 40.4537L37.5633 33.9805C45.218 43.4179 43.657 54.5891 43.5478 55.301C43.4323 56.0166 43.6262 56.747 44.0758 57.3014C44.5232 57.8558 45.1829 58.1738 45.8772 58.1738H66.9987C67.6882 58.1738 68.3458 57.858 68.793 57.3109C69.2427 56.7614 69.4388 56.0356 69.3326 55.3225C67.876 45.6216 71.8389 38.4512 76.9227 33.3948L81.437 39.6576C78.1238 43.0654 76.0648 47.8008 76.0648 53.0305C76.0648 63.3847 84.1255 71.8085 94.0337 71.8085C103.94 71.8085 112 63.3847 112 53.0305C112 42.6783 103.939 34.2546 94.0334 34.2546ZM70.2301 17.6295C67.9116 20.7347 64.8622 23.4882 62.8033 25.1079C59.3043 23.2481 55.9281 21.6218 52.6788 20.2286C55.7657 17.905 61.6501 15.0697 70.2301 17.6295ZM32.214 53.0307C32.214 60.6637 26.2731 66.8726 18.9686 66.8726C11.6646 66.8726 5.72315 60.6637 5.72315 53.0307C5.72315 45.3998 11.6646 39.1908 18.9686 39.1908C21.3864 39.1908 23.6526 39.8744 25.6057 41.0612L17.1697 51.4325L20.7677 54.6284L29.2041 44.2569C31.0841 46.6467 32.214 49.7032 32.214 53.0307ZM64.3623 53.2376H48.4071C48.5571 45.9855 46.6519 26.9712 23.7497 19.227C24.8269 19.0797 26.0517 18.9907 27.4306 18.9907C33.7665 18.9907 44.892 20.9333 61.9201 30.1835C62.6858 30.6009 63.615 30.5502 64.3347 30.0341C64.8559 29.6655 77.1048 20.8751 78.1569 11.1645C78.2837 10.005 78.2513 8.87954 78.0644 7.79719C81.2587 9.59519 85.4609 13.0854 89.0357 19.8027C81.9807 22.8736 63.1055 33.0207 64.3623 53.2376ZM94.0334 66.8726C86.7292 66.8726 80.7882 60.6637 80.7882 53.0307C80.7882 49.4113 82.1263 46.1133 84.311 43.6447L92.1471 54.5153L95.9202 51.5459L88.0823 40.6725C89.873 39.7272 91.8939 39.1908 94.0337 39.1908C101.336 39.1908 107.277 45.3998 107.277 53.0307C107.277 60.6637 101.335 66.8726 94.0334 66.8726Z"/>
</mask>
<path d="M94.0334 34.2546C90.8271 34.2546 87.8168 35.1409 85.2078 36.6854L80.5576 30.2341C86.463 25.7234 92.5297 23.6539 93.0533 23.4811C93.7059 23.2642 94.2364 22.7628 94.5085 22.1094C94.7805 21.4539 94.769 20.7068 94.4738 20.0631C86.4848 2.57957 74.0974 1.06826 73.5737 1.01262C72.5704 0.908935 71.6548 1.45129 71.2191 2.36959C70.7808 3.29025 70.9353 4.39674 71.604 5.15098C73.0733 6.79959 73.682 8.58338 73.4632 10.6053C73.3685 11.486 73.1229 12.383 72.7643 13.2797C59.2862 8.67334 50.6892 15.2359 47.6534 18.2241C40.1281 15.4541 33.3619 14.0546 27.4306 14.0546C18.2883 14.0546 14.4344 17.4335 14.0239 17.8193C13.3552 18.4481 13.0852 19.422 13.3318 20.3285C13.5788 21.2347 14.296 21.9141 15.1815 22.0832C23.875 23.7294 29.9526 26.8325 34.1914 30.5059L28.6987 37.2585C25.8923 35.3613 22.5528 34.2546 18.9686 34.2546C9.06062 34.2546 1 42.6783 1 53.0307C1 63.385 9.06062 71.8087 18.9688 71.8087C28.8768 71.8087 36.9377 63.385 36.9377 53.0307C36.9377 48.1973 35.1798 43.7853 32.2979 40.4537L37.5633 33.9805C45.218 43.4179 43.657 54.5891 43.5478 55.301C43.4323 56.0166 43.6262 56.747 44.0758 57.3014C44.5232 57.8558 45.1829 58.1738 45.8772 58.1738H66.9987C67.6882 58.1738 68.3458 57.858 68.793 57.3109C69.2427 56.7614 69.4388 56.0356 69.3326 55.3225C67.876 45.6216 71.8389 38.4512 76.9227 33.3948L81.437 39.6576C78.1238 43.0654 76.0648 47.8008 76.0648 53.0305C76.0648 63.3847 84.1255 71.8085 94.0337 71.8085C103.94 71.8085 112 63.3847 112 53.0305C112 42.6783 103.939 34.2546 94.0334 34.2546ZM70.2301 17.6295C67.9116 20.7347 64.8622 23.4882 62.8033 25.1079C59.3043 23.2481 55.9281 21.6218 52.6788 20.2286C55.7657 17.905 61.6501 15.0697 70.2301 17.6295ZM32.214 53.0307C32.214 60.6637 26.2731 66.8726 18.9686 66.8726C11.6646 66.8726 5.72315 60.6637 5.72315 53.0307C5.72315 45.3998 11.6646 39.1908 18.9686 39.1908C21.3864 39.1908 23.6526 39.8744 25.6057 41.0612L17.1697 51.4325L20.7677 54.6284L29.2041 44.2569C31.0841 46.6467 32.214 49.7032 32.214 53.0307ZM64.3623 53.2376H48.4071C48.5571 45.9855 46.6519 26.9712 23.7497 19.227C24.8269 19.0797 26.0517 18.9907 27.4306 18.9907C33.7665 18.9907 44.892 20.9333 61.9201 30.1835C62.6858 30.6009 63.615 30.5502 64.3347 30.0341C64.8559 29.6655 77.1048 20.8751 78.1569 11.1645C78.2837 10.005 78.2513 8.87954 78.0644 7.79719C81.2587 9.59519 85.4609 13.0854 89.0357 19.8027C81.9807 22.8736 63.1055 33.0207 64.3623 53.2376ZM94.0334 66.8726C86.7292 66.8726 80.7882 60.6637 80.7882 53.0307C80.7882 49.4113 82.1263 46.1133 84.311 43.6447L92.1471 54.5153L95.9202 51.5459L88.0823 40.6725C89.873 39.7272 91.8939 39.1908 94.0337 39.1908C101.336 39.1908 107.277 45.3998 107.277 53.0307C107.277 60.6637 101.335 66.8726 94.0334 66.8726Z" fill="url(#paint0_linear_30_62)"/>
<path d="M94.0334 34.2546C90.8271 34.2546 87.8168 35.1409 85.2078 36.6854L80.5576 30.2341C86.463 25.7234 92.5297 23.6539 93.0533 23.4811C93.7059 23.2642 94.2364 22.7628 94.5085 22.1094C94.7805 21.4539 94.769 20.7068 94.4738 20.0631C86.4848 2.57957 74.0974 1.06826 73.5737 1.01262C72.5704 0.908935 71.6548 1.45129 71.2191 2.36959C70.7808 3.29025 70.9353 4.39674 71.604 5.15098C73.0733 6.79959 73.682 8.58338 73.4632 10.6053C73.3685 11.486 73.1229 12.383 72.7643 13.2797C59.2862 8.67334 50.6892 15.2359 47.6534 18.2241C40.1281 15.4541 33.3619 14.0546 27.4306 14.0546C18.2883 14.0546 14.4344 17.4335 14.0239 17.8193C13.3552 18.4481 13.0852 19.422 13.3318 20.3285C13.5788 21.2347 14.296 21.9141 15.1815 22.0832C23.875 23.7294 29.9526 26.8325 34.1914 30.5059L28.6987 37.2585C25.8923 35.3613 22.5528 34.2546 18.9686 34.2546C9.06062 34.2546 1 42.6783 1 53.0307C1 63.385 9.06062 71.8087 18.9688 71.8087C28.8768 71.8087 36.9377 63.385 36.9377 53.0307C36.9377 48.1973 35.1798 43.7853 32.2979 40.4537L37.5633 33.9805C45.218 43.4179 43.657 54.5891 43.5478 55.301C43.4323 56.0166 43.6262 56.747 44.0758 57.3014C44.5232 57.8558 45.1829 58.1738 45.8772 58.1738H66.9987C67.6882 58.1738 68.3458 57.858 68.793 57.3109C69.2427 56.7614 69.4388 56.0356 69.3326 55.3225C67.876 45.6216 71.8389 38.4512 76.9227 33.3948L81.437 39.6576C78.1238 43.0654 76.0648 47.8008 76.0648 53.0305C76.0648 63.3847 84.1255 71.8085 94.0337 71.8085C103.94 71.8085 112 63.3847 112 53.0305C112 42.6783 103.939 34.2546 94.0334 34.2546ZM70.2301 17.6295C67.9116 20.7347 64.8622 23.4882 62.8033 25.1079C59.3043 23.2481 55.9281 21.6218 52.6788 20.2286C55.7657 17.905 61.6501 15.0697 70.2301 17.6295ZM32.214 53.0307C32.214 60.6637 26.2731 66.8726 18.9686 66.8726C11.6646 66.8726 5.72315 60.6637 5.72315 53.0307C5.72315 45.3998 11.6646 39.1908 18.9686 39.1908C21.3864 39.1908 23.6526 39.8744 25.6057 41.0612L17.1697 51.4325L20.7677 54.6284L29.2041 44.2569C31.0841 46.6467 32.214 49.7032 32.214 53.0307ZM64.3623 53.2376H48.4071C48.5571 45.9855 46.6519 26.9712 23.7497 19.227C24.8269 19.0797 26.0517 18.9907 27.4306 18.9907C33.7665 18.9907 44.892 20.9333 61.9201 30.1835C62.6858 30.6009 63.615 30.5502 64.3347 30.0341C64.8559 29.6655 77.1048 20.8751 78.1569 11.1645C78.2837 10.005 78.2513 8.87954 78.0644 7.79719C81.2587 9.59519 85.4609 13.0854 89.0357 19.8027C81.9807 22.8736 63.1055 33.0207 64.3623 53.2376ZM94.0334 66.8726C86.7292 66.8726 80.7882 60.6637 80.7882 53.0307C80.7882 49.4113 82.1263 46.1133 84.311 43.6447L92.1471 54.5153L95.9202 51.5459L88.0823 40.6725C89.873 39.7272 91.8939 39.1908 94.0337 39.1908C101.336 39.1908 107.277 45.3998 107.277 53.0307C107.277 60.6637 101.335 66.8726 94.0334 66.8726Z" stroke="#142C35" stroke-width="2" mask="url(#path-1-outside-1_30_62)"/>
<defs>
<linearGradient id="paint0_linear_30_62" x1="1" y1="36.4044" x2="112" y2="36.4044" gradientUnits="userSpaceOnUse">
<stop stop-color="#142C35"/>
<stop offset="1" stop-color="#C2E890"/>
</linearGradient>
</defs>
</svg>
