<svg width="74" height="51" viewBox="0 0 74 51" fill="none" xmlns="http://www.w3.org/2000/svg">
<g id="train">
<path id="secondary" d="M41.0086 33.407C40.0006 33.407 39.0338 33.0065 38.321 32.2937C37.6082 31.5809 37.2078 30.6141 37.2078 29.6061V18.2035H6.80086C5.79281 18.2035 4.82605 18.6039 4.11325 19.3167C3.40045 20.0295 3 20.9963 3 22.0044V44.8095C3 45.8176 3.40045 46.7844 4.11325 47.4972C4.82605 48.21 5.79281 48.6104 6.80086 48.6104H67.6147C68.6228 48.6104 69.5895 48.21 70.3023 47.4972C71.0151 46.7844 71.4156 45.8176 71.4156 44.8095C71.4102 40.8641 70.5273 36.9692 68.831 33.407H41.0086Z" fill="url(#paint0_linear_26_50)"/>
<g id="primary">
<path d="M18.2035 33.4069H22.0043ZM29.6061 3H52.4112ZM37.2078 3V18.2035ZM71.4156 44.8095C71.4156 37.7531 68.6124 30.9858 63.6228 25.9962C58.6332 21.0066 51.8659 18.2035 44.8095 18.2035H6.80086C5.79281 18.2035 4.82605 18.6039 4.11325 19.3167C3.40045 20.0295 3 20.9963 3 22.0043V44.8095C3 45.8176 3.40045 46.7843 4.11325 47.4971C4.82605 48.2099 5.79281 48.6104 6.80086 48.6104H67.6147C68.6228 48.6104 69.5895 48.2099 70.3023 47.4971C71.0151 46.7843 71.4156 45.8176 71.4156 44.8095ZM44.8095 18.2035H37.2078V29.6061C37.2078 30.6141 37.6082 31.5809 38.321 32.2937C39.0338 33.0065 40.0006 33.4069 41.0086 33.4069H68.831C66.6745 28.8606 63.2729 25.019 59.021 22.3279C54.7692 19.6369 49.8414 18.2067 44.8095 18.2035Z" fill="url(#paint1_linear_26_50)"/>
<path d="M18.2035 33.4069H22.0043M29.6061 3H52.4112M37.2078 3V18.2035M37.2078 18.2035H44.8095M37.2078 18.2035V29.6061C37.2078 30.6141 37.6082 31.5809 38.321 32.2937C39.0338 33.0065 40.0006 33.4069 41.0086 33.4069H68.831C66.6745 28.8606 63.2729 25.019 59.021 22.3279C54.7692 19.6369 49.8414 18.2067 44.8095 18.2035M44.8095 18.2035C51.8659 18.2035 58.6332 21.0066 63.6228 25.9962C68.6124 30.9858 71.4156 37.7531 71.4156 44.8095C71.4156 45.8176 71.0151 46.7843 70.3023 47.4971C69.5895 48.2099 68.6228 48.6104 67.6147 48.6104H6.80086C5.79281 48.6104 4.82605 48.2099 4.11325 47.4971C3.40045 46.7843 3 45.8176 3 44.8095V22.0043C3 20.9963 3.40045 20.0295 4.11325 19.3167C4.82605 18.6039 5.79281 18.2035 6.80086 18.2035H44.8095Z" stroke="#142C35" stroke-width="4.59085" stroke-linecap="round" stroke-linejoin="round"/>
</g>
</g>
<defs>
<linearGradient id="paint0_linear_26_50" x1="36.8315" y1="26.4437" x2="36.9988" y2="48.612" gradientUnits="userSpaceOnUse">
<stop stop-color="#142C35"/>
<stop offset="1" stop-color="#C2E890"/>
</linearGradient>
<linearGradient id="paint1_linear_26_50" x1="36.8315" y1="15.3603" x2="37.2078" y2="48.6104" gradientUnits="userSpaceOnUse">
<stop stop-color="#142C35"/>
<stop offset="1" stop-color="#C2E890"/>
</linearGradient>
</defs>
</svg>
