<svg width="65" height="65" viewBox="0 0 65 65" fill="none" xmlns="http://www.w3.org/2000/svg">
<path id="Vector" d="M9.49914 53.772V53.7757C9.49914 53.7788 9.49911 53.7826 9.49907 53.7871C9.49814 53.8997 9.49362 54.4444 9.88911 54.9145C10.3556 55.469 10.9882 55.4953 11.1598 55.4999L11.1798 55.5004H11.1999C13.198 55.5004 15.0299 54.6021 16.7907 53.3091L22.4061 62.189C22.6466 62.6849 23.12 63.3238 23.9895 63.4607C24.8346 63.5937 25.4879 63.144 25.8025 62.8878L25.9069 62.8027L25.9943 62.7003L27.8668 60.5061L27.9403 60.42L27.9999 60.3238C28.3979 59.6808 28.6402 58.8642 28.4165 57.9548L26.4005 46.029L36.074 37.1006L51.9087 60.4958C52.16 60.907 52.71 61.6214 53.6773 61.6708C54.6582 61.721 55.2956 61.0462 55.6045 60.6413L58.4548 57.0688L58.9295 56.4739L58.7236 55.7412L49.8594 24.2003L59.4367 15.2428L59.4943 15.189L59.5459 15.1293C62.5271 11.68 64.2241 7.85686 63.176 4.64262L63.1746 4.63833C62.9387 3.92256 62.6159 3.22009 61.993 2.66921C61.3849 2.13135 60.6503 1.88161 59.9266 1.70264L59.9255 1.70237C56.8006 0.932109 53.1789 2.59011 49.8695 5.45435L49.8102 5.50562L49.7567 5.56283L40.7993 15.1402L9.25842 6.27602L8.52572 6.07011L7.93079 6.54478L4.36009 9.39369C3.95486 9.70089 3.27482 10.3381 3.32515 11.3222C3.37478 12.2927 4.09421 12.8422 4.50578 13.0921L27.9032 28.9209L18.9708 38.5943L7.04312 36.578C6.1258 36.3542 5.311 36.6046 4.68002 36.9923L4.58149 37.0528L4.49352 37.1279L2.29923 39.0005L2.19397 39.0903L2.10713 39.1981C1.85623 39.5093 1.40565 40.1631 1.53902 41.0078C1.67657 41.8789 2.31843 42.3502 2.81069 42.5888L11.6897 48.2035C10.4008 49.9576 9.50408 51.7851 9.49914 53.772Z" fill="url(#paint0_linear_26_49)" stroke="#142C35" stroke-width="2.96932"/>
<defs>
<linearGradient id="paint0_linear_26_49" x1="64.1681" y1="-0.266255" x2="9.82944" y2="54.3693" gradientUnits="userSpaceOnUse">
<stop offset="0.0368838" stop-color="#142C35"/>
<stop offset="1" stop-color="#C2E890"/>
</linearGradient>
</defs>
</svg>
