<svg width="47" height="69" viewBox="0 0 47 69" fill="none" xmlns="http://www.w3.org/2000/svg">
<g id="Group">
<path id="Vector" d="M26.2544 17.0295C30.2822 17.0295 33.5471 13.7643 33.5471 9.73574C33.5471 5.7082 30.282 2.44316 26.2544 2.44316C22.2259 2.44316 18.9606 5.70803 18.9606 9.73586C18.9606 13.7645 22.2257 17.0295 26.2544 17.0295Z" fill="url(#paint0_linear_26_40)" stroke="#142C35" stroke-width="3.11344"/>
<path id="Vector_2" d="M42.5734 31.2308L42.5742 31.2312C44.27 32.1239 45.0098 34.1634 44.2721 35.9363C44.2715 35.9376 44.271 35.9389 44.2705 35.9402L44.2505 35.9889L44.2478 35.9954C43.8625 36.9206 43.1189 37.6506 42.1863 38.0188C41.2541 38.3869 40.2128 38.3622 39.2992 37.9501L39.2987 37.9498L31.9695 34.6406L31.9671 34.6395C31.2326 34.3064 30.5876 33.8009 30.089 33.1665L42.5734 31.2308ZM42.5734 31.2308L36.455 28.014M42.5734 31.2308L36.455 28.014M29.4113 32.3055L28.027 39.5051L33.4837 46.7205C34.5552 48.0801 35.3908 49.6098 35.955 51.2473C35.9551 51.2475 35.9551 51.2477 35.9552 51.2479L39.5787 61.7509L39.5791 61.7522C39.966 62.8769 39.8646 64.1104 39.3064 65.1553L39.3036 65.1605C38.7432 66.2001 37.778 66.9634 36.6321 67.2647L36.5897 67.2765L36.5755 67.2805L36.5612 67.2842C34.5772 67.7985 32.5093 66.8274 31.6351 64.9759L31.635 64.9758L26.8088 54.751L21.8196 49.2452L19.1869 54.4693L19.1666 54.5096L19.1439 54.5487L13.0118 65.1409L13.0114 65.1415C12.0366 66.8234 10.049 67.6342 8.17595 67.1122C8.17551 67.112 8.17507 67.1119 8.17463 67.1118L7.9543 67.0508L7.95093 67.0499C6.78422 66.7242 5.81042 65.9179 5.27354 64.8308C4.73689 63.7455 4.68596 62.4817 5.13768 61.3551L5.13774 61.355L10.2651 48.5706L14.9508 27.7459L12.8352 28.4297L9.73424 35.1453C9.73421 35.1454 9.73418 35.1454 9.73415 35.1455C8.88811 36.9781 6.74913 37.8233 4.87896 37.0614L4.80061 37.03L4.78883 37.0253L4.78885 37.0252C3.8537 36.6415 3.10976 35.8976 2.72593 34.9614L29.4113 32.3055ZM29.4113 32.3055L30.088 33.1652L29.4113 32.3055ZM36.455 28.014L33.9092 22.7838C33.4003 21.7379 32.6277 21.0242 31.5904 20.7464C30.6756 20.5014 29.7541 20.6589 29.0653 20.8135C28.7664 20.8805 28.4555 20.9616 28.1679 21.0365C28.1089 21.0519 28.051 21.067 27.9943 21.0816C27.6464 21.1717 27.3212 21.2527 26.9986 21.3158C26.3525 21.4423 25.7947 21.4803 25.2804 21.3848C25.2803 21.3847 25.2802 21.3847 25.2801 21.3847L22.4312 20.8548C22.4347 20.8555 22.4366 20.8558 22.4366 20.8557C22.4369 20.8547 22.3543 20.8317 22.1638 20.7388C21.9648 20.6416 21.718 20.5031 21.4289 20.3266C20.8496 19.9729 20.1891 19.5218 19.5355 19.0709C19.4683 19.0245 19.4008 18.9779 19.3334 18.9313C18.7698 18.5421 18.205 18.1519 17.7704 17.8842C17.5472 17.7467 17.2518 17.5735 16.9689 17.4683L16.9635 17.4663C16.8661 17.43 16.4999 17.2935 16.056 17.3586C15.8469 17.3893 15.565 17.474 15.302 17.6764L9.2603 20.5012L9.2603 20.5011L9.25537 20.5035C7.98855 21.1012 6.98828 22.1414 6.43835 23.425L6.43828 23.4252L2.74829 32.0413L2.74825 32.0414C2.34962 32.9723 2.34154 34.0242 2.72543 34.9601L36.455 28.014Z" fill="url(#paint1_linear_26_40)" stroke="#142C35" stroke-width="3.11344"/>
</g>
<defs>
<linearGradient id="paint0_linear_26_40" x1="26.2539" y1="3.99988" x2="26.2539" y2="15.4728" gradientUnits="userSpaceOnUse">
<stop stop-color="#244039"/>
<stop offset="1" stop-color="#C2E890"/>
</linearGradient>
<linearGradient id="paint1_linear_26_40" x1="23.5" y1="17.3282" x2="23.5" y2="65.8641" gradientUnits="userSpaceOnUse">
<stop stop-color="#244039"/>
<stop offset="1" stop-color="#C2E890"/>
</linearGradient>
</defs>
</svg>
